<mxfile host="app.diagrams.net" agent="Mozilla/5.0 (Macintosh; Intel Mac OS X 10_15_7) AppleWebKit/537.36 (KHTML, like Gecko) Chrome/136.0.0.0 Safari/537.36" version="27.1.4" pages="5">
  <diagram name="Информационная модель" id="W61YUnUfTBmsfCAFPf8Z">
    <mxGraphModel grid="1" page="1" gridSize="10" guides="1" tooltips="1" connect="1" arrows="1" fold="1" pageScale="1" pageWidth="827" pageHeight="1169" math="0" shadow="0">
      <root>
        <mxCell id="0" />
        <mxCell id="1" parent="0" />
        <mxCell id="bkvfVt8OuZXxmEuU6Miq-1" value="&lt;font style=&quot;font-size: 14px;&quot; face=&quot;Times New Roman&quot;&gt;1. Вафельница (В)&lt;/font&gt;" style="swimlane;fontStyle=0;childLayout=stackLayout;horizontal=1;startSize=30;horizontalStack=0;resizeParent=1;resizeParentMax=0;resizeLast=0;collapsible=1;marginBottom=0;whiteSpace=wrap;html=1;labelBackgroundColor=none;" vertex="1" parent="1">
          <mxGeometry x="1180" y="210" width="240" height="210" as="geometry">
            <mxRectangle x="440" y="170" width="160" height="30" as="alternateBounds" />
          </mxGeometry>
        </mxCell>
        <mxCell id="bkvfVt8OuZXxmEuU6Miq-2" value="&lt;font style=&quot;font-size: 16px;&quot; face=&quot;Times New Roman&quot;&gt;* ID Вафельницы&lt;/font&gt;" style="text;strokeColor=none;fillColor=none;align=left;verticalAlign=middle;spacingLeft=4;spacingRight=4;overflow=hidden;points=[[0,0.5],[1,0.5]];portConstraint=eastwest;rotatable=0;whiteSpace=wrap;html=1;labelBackgroundColor=none;" vertex="1" parent="bkvfVt8OuZXxmEuU6Miq-1">
          <mxGeometry y="30" width="240" height="30" as="geometry" />
        </mxCell>
        <mxCell id="bkvfVt8OuZXxmEuU6Miq-3" value="&lt;font style=&quot;font-size: 16px;&quot; face=&quot;Times New Roman&quot;&gt;- ID Вилки (R1)&lt;/font&gt;" style="text;strokeColor=none;fillColor=none;align=left;verticalAlign=middle;spacingLeft=4;spacingRight=4;overflow=hidden;points=[[0,0.5],[1,0.5]];portConstraint=eastwest;rotatable=0;whiteSpace=wrap;html=1;labelBackgroundColor=none;" vertex="1" parent="bkvfVt8OuZXxmEuU6Miq-1">
          <mxGeometry y="60" width="240" height="30" as="geometry" />
        </mxCell>
        <mxCell id="bkvfVt8OuZXxmEuU6Miq-4" value="&lt;font style=&quot;font-size: 16px;&quot;&gt;&lt;span style=&quot;font-family: &amp;quot;Times New Roman&amp;quot;;&quot;&gt;- ID&amp;nbsp;&lt;/span&gt;&lt;span style=&quot;font-family: &amp;quot;Times New Roman&amp;quot;; text-align: center;&quot;&gt;Электронагревателя&amp;nbsp;&lt;/span&gt;&lt;span style=&quot;font-family: &amp;quot;Times New Roman&amp;quot;;&quot;&gt;(R2)&lt;/span&gt;&lt;/font&gt;" style="text;strokeColor=none;fillColor=none;align=left;verticalAlign=middle;spacingLeft=4;spacingRight=4;overflow=hidden;points=[[0,0.5],[1,0.5]];portConstraint=eastwest;rotatable=0;whiteSpace=wrap;html=1;labelBackgroundColor=none;" vertex="1" parent="bkvfVt8OuZXxmEuU6Miq-1">
          <mxGeometry y="90" width="240" height="30" as="geometry" />
        </mxCell>
        <mxCell id="bkvfVt8OuZXxmEuU6Miq-5" value="&lt;font style=&quot;font-size: 16px;&quot;&gt;&lt;span style=&quot;font-family: &amp;quot;Times New Roman&amp;quot;;&quot;&gt;- ID Панели управления (R3)&lt;/span&gt;&lt;/font&gt;" style="text;strokeColor=none;fillColor=none;align=left;verticalAlign=middle;spacingLeft=4;spacingRight=4;overflow=hidden;points=[[0,0.5],[1,0.5]];portConstraint=eastwest;rotatable=0;whiteSpace=wrap;html=1;labelBackgroundColor=none;" vertex="1" parent="bkvfVt8OuZXxmEuU6Miq-1">
          <mxGeometry y="120" width="240" height="30" as="geometry" />
        </mxCell>
        <mxCell id="bkvfVt8OuZXxmEuU6Miq-8" value="&lt;span style=&quot;font-family: &amp;quot;Times New Roman&amp;quot;;&quot;&gt;&lt;font style=&quot;font-size: 16px;&quot;&gt;- ID Датчика перегрева (R4)&lt;/font&gt;&lt;/span&gt;" style="text;strokeColor=none;fillColor=none;align=left;verticalAlign=middle;spacingLeft=4;spacingRight=4;overflow=hidden;points=[[0,0.5],[1,0.5]];portConstraint=eastwest;rotatable=0;whiteSpace=wrap;html=1;labelBackgroundColor=none;" vertex="1" parent="bkvfVt8OuZXxmEuU6Miq-1">
          <mxGeometry y="150" width="240" height="30" as="geometry" />
        </mxCell>
        <mxCell id="bkvfVt8OuZXxmEuU6Miq-10" value="&lt;font style=&quot;font-size: 16px;&quot;&gt;- &lt;font style=&quot;&quot; face=&quot;Times New Roman&quot;&gt;Состояние&lt;/font&gt;&lt;/font&gt;" style="text;strokeColor=none;fillColor=none;align=left;verticalAlign=middle;spacingLeft=4;spacingRight=4;overflow=hidden;points=[[0,0.5],[1,0.5]];portConstraint=eastwest;rotatable=0;whiteSpace=wrap;html=1;labelBackgroundColor=none;" vertex="1" parent="bkvfVt8OuZXxmEuU6Miq-1">
          <mxGeometry y="180" width="240" height="30" as="geometry" />
        </mxCell>
        <mxCell id="bkvfVt8OuZXxmEuU6Miq-45" style="edgeStyle=orthogonalEdgeStyle;rounded=0;orthogonalLoop=1;jettySize=auto;html=1;entryX=0;entryY=0.5;entryDx=0;entryDy=0;startArrow=classic;startFill=1;labelBackgroundColor=none;fontColor=default;" edge="1" parent="1" source="bkvfVt8OuZXxmEuU6Miq-11" target="bkvfVt8OuZXxmEuU6Miq-3">
          <mxGeometry relative="1" as="geometry" />
        </mxCell>
        <mxCell id="bkvfVt8OuZXxmEuU6Miq-46" value="&lt;font style=&quot;font-size: 16px;&quot;&gt;R1&lt;/font&gt;" style="edgeLabel;html=1;align=center;verticalAlign=middle;resizable=0;points=[];labelBackgroundColor=none;" connectable="0" vertex="1" parent="bkvfVt8OuZXxmEuU6Miq-45">
          <mxGeometry x="-0.3458" relative="1" as="geometry">
            <mxPoint x="34" as="offset" />
          </mxGeometry>
        </mxCell>
        <mxCell id="bkvfVt8OuZXxmEuU6Miq-11" value="&lt;font style=&quot;font-size: 14px;&quot; face=&quot;Times New Roman&quot;&gt;2.Вилка (В)&lt;/font&gt;" style="swimlane;fontStyle=0;childLayout=stackLayout;horizontal=1;startSize=30;horizontalStack=0;resizeParent=1;resizeParentMax=0;resizeLast=0;collapsible=1;marginBottom=0;whiteSpace=wrap;html=1;labelBackgroundColor=none;" vertex="1" parent="1">
          <mxGeometry x="920" y="380" width="140" height="90" as="geometry" />
        </mxCell>
        <mxCell id="bkvfVt8OuZXxmEuU6Miq-12" value="&lt;span style=&quot;font-family: &amp;quot;Times New Roman&amp;quot;;&quot;&gt;&lt;font style=&quot;font-size: 16px;&quot;&gt;* ID Вилки (R1)&lt;/font&gt;&lt;/span&gt;" style="text;strokeColor=none;fillColor=none;align=left;verticalAlign=middle;spacingLeft=4;spacingRight=4;overflow=hidden;points=[[0,0.5],[1,0.5]];portConstraint=eastwest;rotatable=0;whiteSpace=wrap;html=1;labelBackgroundColor=none;" vertex="1" parent="bkvfVt8OuZXxmEuU6Miq-11">
          <mxGeometry y="30" width="140" height="30" as="geometry" />
        </mxCell>
        <mxCell id="bkvfVt8OuZXxmEuU6Miq-13" value="&lt;font style=&quot;font-size: 14px;&quot; face=&quot;Times New Roman&quot;&gt;- Состояние&lt;/font&gt;" style="text;strokeColor=none;fillColor=none;align=left;verticalAlign=middle;spacingLeft=4;spacingRight=4;overflow=hidden;points=[[0,0.5],[1,0.5]];portConstraint=eastwest;rotatable=0;whiteSpace=wrap;html=1;labelBackgroundColor=none;" vertex="1" parent="bkvfVt8OuZXxmEuU6Miq-11">
          <mxGeometry y="60" width="140" height="30" as="geometry" />
        </mxCell>
        <mxCell id="bkvfVt8OuZXxmEuU6Miq-14" value="&lt;font style=&quot;font-size: 14px;&quot; face=&quot;Times New Roman&quot;&gt;3.Электронагреватель(Э)&lt;/font&gt;" style="swimlane;fontStyle=0;childLayout=stackLayout;horizontal=1;startSize=30;horizontalStack=0;resizeParent=1;resizeParentMax=0;resizeLast=0;collapsible=1;marginBottom=0;whiteSpace=wrap;html=1;labelBackgroundColor=none;" vertex="1" parent="1">
          <mxGeometry x="860" y="500" width="215" height="90" as="geometry" />
        </mxCell>
        <mxCell id="bkvfVt8OuZXxmEuU6Miq-15" value="&lt;font style=&quot;font-size: 16px;&quot;&gt;&lt;font style=&quot;&quot; face=&quot;Times New Roman&quot;&gt;* ID&amp;nbsp;&lt;/font&gt;&lt;span style=&quot;font-family: &amp;quot;Times New Roman&amp;quot;; text-align: center;&quot;&gt;Электронагревателя&amp;nbsp;&lt;/span&gt;&lt;font style=&quot;&quot; face=&quot;Times New Roman&quot;&gt;(R2)&lt;/font&gt;&lt;/font&gt;" style="text;strokeColor=none;fillColor=none;align=left;verticalAlign=middle;spacingLeft=4;spacingRight=4;overflow=hidden;points=[[0,0.5],[1,0.5]];portConstraint=eastwest;rotatable=0;whiteSpace=wrap;html=1;labelBackgroundColor=none;" vertex="1" parent="bkvfVt8OuZXxmEuU6Miq-14">
          <mxGeometry y="30" width="215" height="30" as="geometry" />
        </mxCell>
        <mxCell id="bkvfVt8OuZXxmEuU6Miq-16" value="&lt;font style=&quot;font-size: 16px;&quot; face=&quot;Times New Roman&quot;&gt;- Состояние&lt;/font&gt;" style="text;strokeColor=none;fillColor=none;align=left;verticalAlign=middle;spacingLeft=4;spacingRight=4;overflow=hidden;points=[[0,0.5],[1,0.5]];portConstraint=eastwest;rotatable=0;whiteSpace=wrap;html=1;labelBackgroundColor=none;" vertex="1" parent="bkvfVt8OuZXxmEuU6Miq-14">
          <mxGeometry y="60" width="215" height="30" as="geometry" />
        </mxCell>
        <mxCell id="bkvfVt8OuZXxmEuU6Miq-17" value="&lt;font style=&quot;font-size: 14px;&quot; face=&quot;Times New Roman&quot;&gt;4. Панель управления (П)&lt;/font&gt;" style="swimlane;fontStyle=0;childLayout=stackLayout;horizontal=1;startSize=30;horizontalStack=0;resizeParent=1;resizeParentMax=0;resizeLast=0;collapsible=1;marginBottom=0;whiteSpace=wrap;html=1;labelBackgroundColor=none;" vertex="1" parent="1">
          <mxGeometry x="1040" y="630" width="240" height="90" as="geometry">
            <mxRectangle x="600" y="520" width="220" height="30" as="alternateBounds" />
          </mxGeometry>
        </mxCell>
        <mxCell id="bkvfVt8OuZXxmEuU6Miq-18" value="&lt;div style=&quot;text-align: center;&quot;&gt;&lt;font style=&quot;background-color: transparent; color: light-dark(rgb(0, 0, 0), rgb(255, 255, 255)); font-size: 14px;&quot; face=&quot;Times New Roman&quot;&gt;* ID Кольца вращения&lt;/font&gt;&lt;font style=&quot;background-color: transparent; color: light-dark(rgb(0, 0, 0), rgb(255, 255, 255)); font-size: 14px;&quot; face=&quot;Times New Roman&quot;&gt;&amp;nbsp;(R3)&lt;/font&gt;&lt;/div&gt;" style="text;strokeColor=none;fillColor=none;align=left;verticalAlign=middle;spacingLeft=4;spacingRight=4;overflow=hidden;points=[[0,0.5],[1,0.5]];portConstraint=eastwest;rotatable=0;whiteSpace=wrap;html=1;labelBackgroundColor=none;" vertex="1" parent="bkvfVt8OuZXxmEuU6Miq-17">
          <mxGeometry y="30" width="240" height="30" as="geometry" />
        </mxCell>
        <mxCell id="bkvfVt8OuZXxmEuU6Miq-19" value="&lt;font style=&quot;font-size: 14px;&quot; face=&quot;Times New Roman&quot;&gt;- Состояние&lt;/font&gt;" style="text;strokeColor=none;fillColor=none;align=left;verticalAlign=middle;spacingLeft=4;spacingRight=4;overflow=hidden;points=[[0,0.5],[1,0.5]];portConstraint=eastwest;rotatable=0;whiteSpace=wrap;html=1;labelBackgroundColor=none;" vertex="1" parent="bkvfVt8OuZXxmEuU6Miq-17">
          <mxGeometry y="60" width="240" height="30" as="geometry" />
        </mxCell>
        <mxCell id="bkvfVt8OuZXxmEuU6Miq-51" style="edgeStyle=orthogonalEdgeStyle;rounded=0;orthogonalLoop=1;jettySize=auto;html=1;labelBackgroundColor=none;fontColor=default;" edge="1" parent="1" source="bkvfVt8OuZXxmEuU6Miq-38" target="bkvfVt8OuZXxmEuU6Miq-8">
          <mxGeometry relative="1" as="geometry" />
        </mxCell>
        <mxCell id="bkvfVt8OuZXxmEuU6Miq-53" value="&lt;font style=&quot;font-size: 16px;&quot;&gt;R4&lt;/font&gt;" style="edgeLabel;html=1;align=center;verticalAlign=middle;resizable=0;points=[];labelBackgroundColor=none;" connectable="0" vertex="1" parent="bkvfVt8OuZXxmEuU6Miq-51">
          <mxGeometry x="0.0857" y="1" relative="1" as="geometry">
            <mxPoint as="offset" />
          </mxGeometry>
        </mxCell>
        <mxCell id="bkvfVt8OuZXxmEuU6Miq-38" value="&lt;font style=&quot;font-size: 14px;&quot; face=&quot;Times New Roman&quot;&gt;5.Датчик перегрева (Д)&lt;/font&gt;" style="swimlane;fontStyle=0;childLayout=stackLayout;horizontal=1;startSize=30;horizontalStack=0;resizeParent=1;resizeParentMax=0;resizeLast=0;collapsible=1;marginBottom=0;whiteSpace=wrap;html=1;labelBackgroundColor=none;" vertex="1" parent="1">
          <mxGeometry x="1370" y="650" width="230" height="120" as="geometry">
            <mxRectangle x="50" y="245" width="170" height="30" as="alternateBounds" />
          </mxGeometry>
        </mxCell>
        <mxCell id="bkvfVt8OuZXxmEuU6Miq-39" value="&lt;font style=&quot;font-size: 14px;&quot; face=&quot;Times New Roman&quot;&gt;* ID Датчика перегрева (R4)&lt;/font&gt;" style="text;strokeColor=none;fillColor=none;align=left;verticalAlign=middle;spacingLeft=4;spacingRight=4;overflow=hidden;points=[[0,0.5],[1,0.5]];portConstraint=eastwest;rotatable=0;whiteSpace=wrap;html=1;labelBackgroundColor=none;" vertex="1" parent="bkvfVt8OuZXxmEuU6Miq-38">
          <mxGeometry y="30" width="230" height="30" as="geometry" />
        </mxCell>
        <mxCell id="bkvfVt8OuZXxmEuU6Miq-40" value="&lt;font style=&quot;font-size: 14px;&quot; face=&quot;Times New Roman&quot;&gt;- Критическая температура&lt;/font&gt;" style="text;strokeColor=none;fillColor=none;align=left;verticalAlign=middle;spacingLeft=4;spacingRight=4;overflow=hidden;points=[[0,0.5],[1,0.5]];portConstraint=eastwest;rotatable=0;whiteSpace=wrap;html=1;labelBackgroundColor=none;" vertex="1" parent="bkvfVt8OuZXxmEuU6Miq-38">
          <mxGeometry y="60" width="230" height="30" as="geometry" />
        </mxCell>
        <mxCell id="bkvfVt8OuZXxmEuU6Miq-41" value="&lt;span style=&quot;font-family: &amp;quot;Times New Roman&amp;quot;; font-size: 14px;&quot;&gt;- Состояние&lt;/span&gt;" style="text;strokeColor=none;fillColor=none;align=left;verticalAlign=middle;spacingLeft=4;spacingRight=4;overflow=hidden;points=[[0,0.5],[1,0.5]];portConstraint=eastwest;rotatable=0;whiteSpace=wrap;html=1;labelBackgroundColor=none;" vertex="1" parent="bkvfVt8OuZXxmEuU6Miq-38">
          <mxGeometry y="90" width="230" height="30" as="geometry" />
        </mxCell>
        <mxCell id="bkvfVt8OuZXxmEuU6Miq-47" style="edgeStyle=orthogonalEdgeStyle;rounded=0;orthogonalLoop=1;jettySize=auto;html=1;entryX=0;entryY=0.5;entryDx=0;entryDy=0;labelBackgroundColor=none;fontColor=default;" edge="1" parent="1" source="bkvfVt8OuZXxmEuU6Miq-15" target="bkvfVt8OuZXxmEuU6Miq-4">
          <mxGeometry relative="1" as="geometry" />
        </mxCell>
        <mxCell id="bkvfVt8OuZXxmEuU6Miq-48" value="&lt;font style=&quot;font-size: 16px;&quot;&gt;R2&lt;/font&gt;" style="edgeLabel;html=1;align=center;verticalAlign=middle;resizable=0;points=[];labelBackgroundColor=none;" connectable="0" vertex="1" parent="bkvfVt8OuZXxmEuU6Miq-47">
          <mxGeometry x="-0.0309" y="2" relative="1" as="geometry">
            <mxPoint as="offset" />
          </mxGeometry>
        </mxCell>
        <mxCell id="bkvfVt8OuZXxmEuU6Miq-49" style="edgeStyle=orthogonalEdgeStyle;rounded=0;orthogonalLoop=1;jettySize=auto;html=1;entryX=0.5;entryY=0;entryDx=0;entryDy=0;exitX=0.43;exitY=1.034;exitDx=0;exitDy=0;exitPerimeter=0;labelBackgroundColor=none;fontColor=default;" edge="1" parent="1" source="bkvfVt8OuZXxmEuU6Miq-10" target="bkvfVt8OuZXxmEuU6Miq-17">
          <mxGeometry relative="1" as="geometry">
            <Array as="points">
              <mxPoint x="1283" y="495" />
              <mxPoint x="1160" y="495" />
            </Array>
          </mxGeometry>
        </mxCell>
        <mxCell id="bkvfVt8OuZXxmEuU6Miq-50" value="&lt;font style=&quot;font-size: 16px;&quot;&gt;R3&lt;/font&gt;" style="edgeLabel;html=1;align=center;verticalAlign=middle;resizable=0;points=[];labelBackgroundColor=none;" connectable="0" vertex="1" parent="bkvfVt8OuZXxmEuU6Miq-49">
          <mxGeometry x="-0.0956" y="1" relative="1" as="geometry">
            <mxPoint x="-47" y="49" as="offset" />
          </mxGeometry>
        </mxCell>
      </root>
    </mxGraphModel>
  </diagram>
  <diagram id="pC6NGQ6Uw_LbsO8ftMHR" name="ДПС">
    <mxGraphModel grid="1" page="1" gridSize="10" guides="1" tooltips="1" connect="1" arrows="1" fold="1" pageScale="1" pageWidth="827" pageHeight="1169" math="0" shadow="0">
      <root>
        <mxCell id="0" />
        <mxCell id="1" parent="0" />
        <mxCell id="9hR5Twmfe8VWlhZQ7I1L-1" value="&lt;font style=&quot;font-size: 20px;&quot;&gt;&lt;b&gt;Вафельница&lt;/b&gt;&lt;/font&gt;" style="text;html=1;align=center;verticalAlign=middle;whiteSpace=wrap;rounded=0;labelBackgroundColor=none;" vertex="1" parent="1">
          <mxGeometry x="271" y="50" width="206" height="30" as="geometry" />
        </mxCell>
        <mxCell id="9hR5Twmfe8VWlhZQ7I1L-5" style="edgeStyle=orthogonalEdgeStyle;rounded=0;orthogonalLoop=1;jettySize=auto;html=1;entryX=0.418;entryY=-0.006;entryDx=0;entryDy=0;entryPerimeter=0;endArrow=classic;endFill=1;labelBackgroundColor=none;fontColor=default;" edge="1" parent="1">
          <mxGeometry relative="1" as="geometry">
            <mxPoint x="210" y="130.18268096514748" as="sourcePoint" />
            <mxPoint x="80.16000000000003" y="199.82" as="targetPoint" />
            <Array as="points">
              <mxPoint x="80" y="130" />
              <mxPoint x="80" y="190" />
              <mxPoint x="80" y="190" />
            </Array>
          </mxGeometry>
        </mxCell>
        <mxCell id="gbKqkkttoXDkYdt1FxoY-7" value="C1" style="edgeLabel;html=1;align=center;verticalAlign=middle;resizable=0;points=[];fontSize=14;labelBackgroundColor=none;" connectable="0" vertex="1" parent="9hR5Twmfe8VWlhZQ7I1L-5">
          <mxGeometry x="-0.1156" y="-3" relative="1" as="geometry">
            <mxPoint as="offset" />
          </mxGeometry>
        </mxCell>
        <mxCell id="9hR5Twmfe8VWlhZQ7I1L-2" value="&lt;font style=&quot;font-size: 14px;&quot;&gt;1. Выключена&lt;/font&gt;" style="rounded=0;whiteSpace=wrap;html=1;labelBackgroundColor=none;" vertex="1" parent="1">
          <mxGeometry x="210" y="110" width="130" height="60" as="geometry" />
        </mxCell>
        <mxCell id="9hR5Twmfe8VWlhZQ7I1L-7" style="edgeStyle=orthogonalEdgeStyle;rounded=0;orthogonalLoop=1;jettySize=auto;html=1;entryX=0;entryY=0.5;entryDx=0;entryDy=0;labelBackgroundColor=none;fontColor=default;" edge="1" parent="1" source="9hR5Twmfe8VWlhZQ7I1L-3" target="9hR5Twmfe8VWlhZQ7I1L-2">
          <mxGeometry relative="1" as="geometry">
            <Array as="points">
              <mxPoint x="100" y="140" />
            </Array>
          </mxGeometry>
        </mxCell>
        <mxCell id="9hR5Twmfe8VWlhZQ7I1L-8" value="&lt;font style=&quot;font-size: 14px;&quot;&gt;C2&lt;/font&gt;" style="edgeLabel;html=1;align=center;verticalAlign=middle;resizable=0;points=[];labelBackgroundColor=none;" connectable="0" vertex="1" parent="9hR5Twmfe8VWlhZQ7I1L-7">
          <mxGeometry x="-0.4805" y="-1" relative="1" as="geometry">
            <mxPoint y="11" as="offset" />
          </mxGeometry>
        </mxCell>
        <mxCell id="9hR5Twmfe8VWlhZQ7I1L-9" style="edgeStyle=orthogonalEdgeStyle;rounded=0;orthogonalLoop=1;jettySize=auto;html=1;entryX=0;entryY=0.5;entryDx=0;entryDy=0;labelBackgroundColor=none;fontColor=default;" edge="1" parent="1" source="9hR5Twmfe8VWlhZQ7I1L-3" target="9hR5Twmfe8VWlhZQ7I1L-4">
          <mxGeometry relative="1" as="geometry" />
        </mxCell>
        <mxCell id="9hR5Twmfe8VWlhZQ7I1L-10" value="C3" style="edgeLabel;html=1;align=center;verticalAlign=middle;resizable=0;points=[];labelBackgroundColor=none;" connectable="0" vertex="1" parent="9hR5Twmfe8VWlhZQ7I1L-9">
          <mxGeometry x="-0.1704" y="-2" relative="1" as="geometry">
            <mxPoint as="offset" />
          </mxGeometry>
        </mxCell>
        <mxCell id="9hR5Twmfe8VWlhZQ7I1L-3" value="&lt;font style=&quot;font-size: 14px;&quot;&gt;2. Ожидает запуска&lt;/font&gt;" style="rounded=0;whiteSpace=wrap;html=1;fontStyle=0;labelBackgroundColor=none;" vertex="1" parent="1">
          <mxGeometry x="30" y="200" width="120" height="60" as="geometry" />
        </mxCell>
        <mxCell id="9hR5Twmfe8VWlhZQ7I1L-11" style="edgeStyle=orthogonalEdgeStyle;rounded=0;orthogonalLoop=1;jettySize=auto;html=1;entryX=1;entryY=0.5;entryDx=0;entryDy=0;labelBackgroundColor=none;fontColor=default;" edge="1" parent="1" source="9hR5Twmfe8VWlhZQ7I1L-4" target="9hR5Twmfe8VWlhZQ7I1L-2">
          <mxGeometry relative="1" as="geometry">
            <Array as="points">
              <mxPoint x="420" y="330" />
              <mxPoint x="420" y="140" />
            </Array>
          </mxGeometry>
        </mxCell>
        <mxCell id="gbKqkkttoXDkYdt1FxoY-5" value="&lt;font style=&quot;font-size: 15px;&quot;&gt;C2&lt;/font&gt;" style="edgeLabel;html=1;align=center;verticalAlign=middle;resizable=0;points=[];labelBackgroundColor=none;" connectable="0" vertex="1" parent="9hR5Twmfe8VWlhZQ7I1L-11">
          <mxGeometry x="-0.0779" y="1" relative="1" as="geometry">
            <mxPoint as="offset" />
          </mxGeometry>
        </mxCell>
        <mxCell id="gbKqkkttoXDkYdt1FxoY-1" style="edgeStyle=orthogonalEdgeStyle;rounded=0;orthogonalLoop=1;jettySize=auto;html=1;entryX=1;entryY=0.25;entryDx=0;entryDy=0;labelBackgroundColor=none;fontColor=default;" edge="1" parent="1" source="9hR5Twmfe8VWlhZQ7I1L-4" target="9hR5Twmfe8VWlhZQ7I1L-3">
          <mxGeometry relative="1" as="geometry">
            <Array as="points">
              <mxPoint x="220" y="320" />
              <mxPoint x="220" y="215" />
            </Array>
          </mxGeometry>
        </mxCell>
        <mxCell id="gbKqkkttoXDkYdt1FxoY-6" value="C4" style="edgeLabel;html=1;align=center;verticalAlign=middle;resizable=0;points=[];labelBackgroundColor=none;" connectable="0" vertex="1" parent="gbKqkkttoXDkYdt1FxoY-1">
          <mxGeometry x="0.006" y="2" relative="1" as="geometry">
            <mxPoint as="offset" />
          </mxGeometry>
        </mxCell>
        <mxCell id="9hR5Twmfe8VWlhZQ7I1L-4" value="&lt;font style=&quot;font-size: 14px;&quot;&gt;3. Приготовление&lt;/font&gt;" style="rounded=0;whiteSpace=wrap;html=1;labelBackgroundColor=none;" vertex="1" parent="1">
          <mxGeometry x="250" y="300" width="150" height="60" as="geometry" />
        </mxCell>
        <mxCell id="gbKqkkttoXDkYdt1FxoY-8" value="C1 - Подключить электропитание" style="text;html=1;align=left;verticalAlign=middle;whiteSpace=wrap;rounded=0;labelBackgroundColor=none;" vertex="1" parent="1">
          <mxGeometry x="470" y="120" width="220" height="30" as="geometry" />
        </mxCell>
        <mxCell id="gbKqkkttoXDkYdt1FxoY-9" value="C2 - Выключить электропитание" style="text;html=1;align=left;verticalAlign=middle;whiteSpace=wrap;rounded=0;labelBackgroundColor=none;" vertex="1" parent="1">
          <mxGeometry x="470" y="150" width="220" height="30" as="geometry" />
        </mxCell>
        <mxCell id="gbKqkkttoXDkYdt1FxoY-10" value="C3 - Выбран режим (выбрана мощность)" style="text;html=1;align=left;verticalAlign=middle;whiteSpace=wrap;rounded=0;labelBackgroundColor=none;" vertex="1" parent="1">
          <mxGeometry x="470" y="180" width="223" height="40" as="geometry" />
        </mxCell>
        <mxCell id="gbKqkkttoXDkYdt1FxoY-11" value="C4 - Выключить подогрев (перевести переключатель в положение 0)" style="text;html=1;align=left;verticalAlign=middle;whiteSpace=wrap;rounded=0;labelBackgroundColor=none;" vertex="1" parent="1">
          <mxGeometry x="470" y="220" width="223" height="45" as="geometry" />
        </mxCell>
        <mxCell id="gbKqkkttoXDkYdt1FxoY-50" value="" style="shape=table;startSize=0;container=1;collapsible=0;childLayout=tableLayout;labelBackgroundColor=none;" vertex="1" parent="1">
          <mxGeometry x="740" y="120" width="300" height="160" as="geometry" />
        </mxCell>
        <mxCell id="gbKqkkttoXDkYdt1FxoY-51" value="" style="shape=tableRow;horizontal=0;startSize=0;swimlaneHead=0;swimlaneBody=0;top=0;left=0;bottom=0;right=0;collapsible=0;dropTarget=0;fillColor=none;points=[[0,0.5],[1,0.5]];portConstraint=eastwest;labelBackgroundColor=none;" vertex="1" parent="gbKqkkttoXDkYdt1FxoY-50">
          <mxGeometry width="300" height="40" as="geometry" />
        </mxCell>
        <mxCell id="gbKqkkttoXDkYdt1FxoY-52" value="" style="shape=partialRectangle;html=1;whiteSpace=wrap;connectable=0;overflow=hidden;fillColor=none;top=0;left=0;bottom=0;right=0;pointerEvents=1;labelBackgroundColor=none;" vertex="1" parent="gbKqkkttoXDkYdt1FxoY-51">
          <mxGeometry width="60" height="40" as="geometry">
            <mxRectangle width="60" height="40" as="alternateBounds" />
          </mxGeometry>
        </mxCell>
        <mxCell id="gbKqkkttoXDkYdt1FxoY-53" value="C1" style="shape=partialRectangle;html=1;whiteSpace=wrap;connectable=0;overflow=hidden;fillColor=none;top=0;left=0;bottom=0;right=0;pointerEvents=1;labelBackgroundColor=none;" vertex="1" parent="gbKqkkttoXDkYdt1FxoY-51">
          <mxGeometry x="60" width="60" height="40" as="geometry">
            <mxRectangle width="60" height="40" as="alternateBounds" />
          </mxGeometry>
        </mxCell>
        <mxCell id="gbKqkkttoXDkYdt1FxoY-54" value="C2" style="shape=partialRectangle;html=1;whiteSpace=wrap;connectable=0;overflow=hidden;fillColor=none;top=0;left=0;bottom=0;right=0;pointerEvents=1;labelBackgroundColor=none;" vertex="1" parent="gbKqkkttoXDkYdt1FxoY-51">
          <mxGeometry x="120" width="60" height="40" as="geometry">
            <mxRectangle width="60" height="40" as="alternateBounds" />
          </mxGeometry>
        </mxCell>
        <mxCell id="gbKqkkttoXDkYdt1FxoY-55" value="C3" style="shape=partialRectangle;html=1;whiteSpace=wrap;connectable=0;overflow=hidden;fillColor=none;top=0;left=0;bottom=0;right=0;pointerEvents=1;labelBackgroundColor=none;" vertex="1" parent="gbKqkkttoXDkYdt1FxoY-51">
          <mxGeometry x="180" width="60" height="40" as="geometry">
            <mxRectangle width="60" height="40" as="alternateBounds" />
          </mxGeometry>
        </mxCell>
        <mxCell id="gbKqkkttoXDkYdt1FxoY-56" value="C4" style="shape=partialRectangle;html=1;whiteSpace=wrap;connectable=0;overflow=hidden;fillColor=none;top=0;left=0;bottom=0;right=0;pointerEvents=1;labelBackgroundColor=none;" vertex="1" parent="gbKqkkttoXDkYdt1FxoY-51">
          <mxGeometry x="240" width="60" height="40" as="geometry">
            <mxRectangle width="60" height="40" as="alternateBounds" />
          </mxGeometry>
        </mxCell>
        <mxCell id="gbKqkkttoXDkYdt1FxoY-57" value="" style="shape=tableRow;horizontal=0;startSize=0;swimlaneHead=0;swimlaneBody=0;top=0;left=0;bottom=0;right=0;collapsible=0;dropTarget=0;fillColor=none;points=[[0,0.5],[1,0.5]];portConstraint=eastwest;labelBackgroundColor=none;" vertex="1" parent="gbKqkkttoXDkYdt1FxoY-50">
          <mxGeometry y="40" width="300" height="40" as="geometry" />
        </mxCell>
        <mxCell id="gbKqkkttoXDkYdt1FxoY-58" value="1" style="shape=partialRectangle;html=1;whiteSpace=wrap;connectable=0;overflow=hidden;fillColor=none;top=0;left=0;bottom=0;right=0;pointerEvents=1;labelBackgroundColor=none;" vertex="1" parent="gbKqkkttoXDkYdt1FxoY-57">
          <mxGeometry width="60" height="40" as="geometry">
            <mxRectangle width="60" height="40" as="alternateBounds" />
          </mxGeometry>
        </mxCell>
        <mxCell id="gbKqkkttoXDkYdt1FxoY-59" value="2" style="shape=partialRectangle;html=1;whiteSpace=wrap;connectable=0;overflow=hidden;fillColor=none;top=0;left=0;bottom=0;right=0;pointerEvents=1;labelBackgroundColor=none;" vertex="1" parent="gbKqkkttoXDkYdt1FxoY-57">
          <mxGeometry x="60" width="60" height="40" as="geometry">
            <mxRectangle width="60" height="40" as="alternateBounds" />
          </mxGeometry>
        </mxCell>
        <mxCell id="gbKqkkttoXDkYdt1FxoY-60" value="-" style="shape=partialRectangle;html=1;whiteSpace=wrap;connectable=0;overflow=hidden;fillColor=none;top=0;left=0;bottom=0;right=0;pointerEvents=1;labelBackgroundColor=none;" vertex="1" parent="gbKqkkttoXDkYdt1FxoY-57">
          <mxGeometry x="120" width="60" height="40" as="geometry">
            <mxRectangle width="60" height="40" as="alternateBounds" />
          </mxGeometry>
        </mxCell>
        <mxCell id="gbKqkkttoXDkYdt1FxoY-61" value="-" style="shape=partialRectangle;html=1;whiteSpace=wrap;connectable=0;overflow=hidden;fillColor=none;top=0;left=0;bottom=0;right=0;pointerEvents=1;labelBackgroundColor=none;" vertex="1" parent="gbKqkkttoXDkYdt1FxoY-57">
          <mxGeometry x="180" width="60" height="40" as="geometry">
            <mxRectangle width="60" height="40" as="alternateBounds" />
          </mxGeometry>
        </mxCell>
        <mxCell id="gbKqkkttoXDkYdt1FxoY-62" value="-" style="shape=partialRectangle;html=1;whiteSpace=wrap;connectable=0;overflow=hidden;fillColor=none;top=0;left=0;bottom=0;right=0;pointerEvents=1;labelBackgroundColor=none;" vertex="1" parent="gbKqkkttoXDkYdt1FxoY-57">
          <mxGeometry x="240" width="60" height="40" as="geometry">
            <mxRectangle width="60" height="40" as="alternateBounds" />
          </mxGeometry>
        </mxCell>
        <mxCell id="gbKqkkttoXDkYdt1FxoY-63" value="" style="shape=tableRow;horizontal=0;startSize=0;swimlaneHead=0;swimlaneBody=0;top=0;left=0;bottom=0;right=0;collapsible=0;dropTarget=0;fillColor=none;points=[[0,0.5],[1,0.5]];portConstraint=eastwest;labelBackgroundColor=none;" vertex="1" parent="gbKqkkttoXDkYdt1FxoY-50">
          <mxGeometry y="80" width="300" height="40" as="geometry" />
        </mxCell>
        <mxCell id="gbKqkkttoXDkYdt1FxoY-64" value="2" style="shape=partialRectangle;html=1;whiteSpace=wrap;connectable=0;overflow=hidden;fillColor=none;top=0;left=0;bottom=0;right=0;pointerEvents=1;labelBackgroundColor=none;" vertex="1" parent="gbKqkkttoXDkYdt1FxoY-63">
          <mxGeometry width="60" height="40" as="geometry">
            <mxRectangle width="60" height="40" as="alternateBounds" />
          </mxGeometry>
        </mxCell>
        <mxCell id="gbKqkkttoXDkYdt1FxoY-65" value="-" style="shape=partialRectangle;html=1;whiteSpace=wrap;connectable=0;overflow=hidden;fillColor=none;top=0;left=0;bottom=0;right=0;pointerEvents=1;labelBackgroundColor=none;" vertex="1" parent="gbKqkkttoXDkYdt1FxoY-63">
          <mxGeometry x="60" width="60" height="40" as="geometry">
            <mxRectangle width="60" height="40" as="alternateBounds" />
          </mxGeometry>
        </mxCell>
        <mxCell id="gbKqkkttoXDkYdt1FxoY-66" value="1" style="shape=partialRectangle;html=1;whiteSpace=wrap;connectable=0;overflow=hidden;fillColor=none;top=0;left=0;bottom=0;right=0;pointerEvents=1;labelBackgroundColor=none;" vertex="1" parent="gbKqkkttoXDkYdt1FxoY-63">
          <mxGeometry x="120" width="60" height="40" as="geometry">
            <mxRectangle width="60" height="40" as="alternateBounds" />
          </mxGeometry>
        </mxCell>
        <mxCell id="gbKqkkttoXDkYdt1FxoY-67" value="3" style="shape=partialRectangle;html=1;whiteSpace=wrap;connectable=0;overflow=hidden;fillColor=none;top=0;left=0;bottom=0;right=0;pointerEvents=1;labelBackgroundColor=none;" vertex="1" parent="gbKqkkttoXDkYdt1FxoY-63">
          <mxGeometry x="180" width="60" height="40" as="geometry">
            <mxRectangle width="60" height="40" as="alternateBounds" />
          </mxGeometry>
        </mxCell>
        <mxCell id="gbKqkkttoXDkYdt1FxoY-68" value="&amp;nbsp;-" style="shape=partialRectangle;html=1;whiteSpace=wrap;connectable=0;overflow=hidden;fillColor=none;top=0;left=0;bottom=0;right=0;pointerEvents=1;labelBackgroundColor=none;" vertex="1" parent="gbKqkkttoXDkYdt1FxoY-63">
          <mxGeometry x="240" width="60" height="40" as="geometry">
            <mxRectangle width="60" height="40" as="alternateBounds" />
          </mxGeometry>
        </mxCell>
        <mxCell id="gbKqkkttoXDkYdt1FxoY-69" value="" style="shape=tableRow;horizontal=0;startSize=0;swimlaneHead=0;swimlaneBody=0;top=0;left=0;bottom=0;right=0;collapsible=0;dropTarget=0;fillColor=none;points=[[0,0.5],[1,0.5]];portConstraint=eastwest;labelBackgroundColor=none;" vertex="1" parent="gbKqkkttoXDkYdt1FxoY-50">
          <mxGeometry y="120" width="300" height="40" as="geometry" />
        </mxCell>
        <mxCell id="gbKqkkttoXDkYdt1FxoY-70" value="3" style="shape=partialRectangle;html=1;whiteSpace=wrap;connectable=0;overflow=hidden;fillColor=none;top=0;left=0;bottom=0;right=0;pointerEvents=1;labelBackgroundColor=none;" vertex="1" parent="gbKqkkttoXDkYdt1FxoY-69">
          <mxGeometry width="60" height="40" as="geometry">
            <mxRectangle width="60" height="40" as="alternateBounds" />
          </mxGeometry>
        </mxCell>
        <mxCell id="gbKqkkttoXDkYdt1FxoY-71" value="-" style="shape=partialRectangle;html=1;whiteSpace=wrap;connectable=0;overflow=hidden;fillColor=none;top=0;left=0;bottom=0;right=0;pointerEvents=1;labelBackgroundColor=none;" vertex="1" parent="gbKqkkttoXDkYdt1FxoY-69">
          <mxGeometry x="60" width="60" height="40" as="geometry">
            <mxRectangle width="60" height="40" as="alternateBounds" />
          </mxGeometry>
        </mxCell>
        <mxCell id="gbKqkkttoXDkYdt1FxoY-72" value="1" style="shape=partialRectangle;html=1;whiteSpace=wrap;connectable=0;overflow=hidden;fillColor=none;top=0;left=0;bottom=0;right=0;pointerEvents=1;labelBackgroundColor=none;" vertex="1" parent="gbKqkkttoXDkYdt1FxoY-69">
          <mxGeometry x="120" width="60" height="40" as="geometry">
            <mxRectangle width="60" height="40" as="alternateBounds" />
          </mxGeometry>
        </mxCell>
        <mxCell id="gbKqkkttoXDkYdt1FxoY-73" value="-" style="shape=partialRectangle;html=1;whiteSpace=wrap;connectable=0;overflow=hidden;fillColor=none;top=0;left=0;bottom=0;right=0;pointerEvents=1;labelBackgroundColor=none;" vertex="1" parent="gbKqkkttoXDkYdt1FxoY-69">
          <mxGeometry x="180" width="60" height="40" as="geometry">
            <mxRectangle width="60" height="40" as="alternateBounds" />
          </mxGeometry>
        </mxCell>
        <mxCell id="gbKqkkttoXDkYdt1FxoY-74" value="2" style="shape=partialRectangle;html=1;whiteSpace=wrap;connectable=0;overflow=hidden;fillColor=none;top=0;left=0;bottom=0;right=0;pointerEvents=1;labelBackgroundColor=none;" vertex="1" parent="gbKqkkttoXDkYdt1FxoY-69">
          <mxGeometry x="240" width="60" height="40" as="geometry">
            <mxRectangle width="60" height="40" as="alternateBounds" />
          </mxGeometry>
        </mxCell>
        <mxCell id="WHsfBUfXLclG-ORaUZF6-1" style="edgeStyle=orthogonalEdgeStyle;rounded=0;orthogonalLoop=1;jettySize=auto;html=1;entryX=0.406;entryY=0;entryDx=0;entryDy=0;entryPerimeter=0;exitX=0.405;exitY=1.007;exitDx=0;exitDy=0;exitPerimeter=0;labelBackgroundColor=none;fontColor=default;" edge="1" parent="1" source="gbKqkkttoXDkYdt1FxoY-79" target="gbKqkkttoXDkYdt1FxoY-89">
          <mxGeometry relative="1" as="geometry" />
        </mxCell>
        <mxCell id="WHsfBUfXLclG-ORaUZF6-4" value="&lt;font style=&quot;font-size: 14px;&quot;&gt;В1&lt;/font&gt;" style="edgeLabel;html=1;align=center;verticalAlign=middle;resizable=0;points=[];labelBackgroundColor=none;" connectable="0" vertex="1" parent="WHsfBUfXLclG-ORaUZF6-1">
          <mxGeometry x="0.0045" relative="1" as="geometry">
            <mxPoint as="offset" />
          </mxGeometry>
        </mxCell>
        <mxCell id="gbKqkkttoXDkYdt1FxoY-79" value="&lt;font style=&quot;font-size: 14px;&quot;&gt;1. Отключена от сети&lt;/font&gt;" style="rounded=0;whiteSpace=wrap;html=1;labelBackgroundColor=none;" vertex="1" parent="1">
          <mxGeometry x="60" y="470" width="130" height="60" as="geometry" />
        </mxCell>
        <mxCell id="WHsfBUfXLclG-ORaUZF6-3" style="edgeStyle=orthogonalEdgeStyle;rounded=0;orthogonalLoop=1;jettySize=auto;html=1;entryX=0.597;entryY=1.005;entryDx=0;entryDy=0;exitX=0.587;exitY=0.004;exitDx=0;exitDy=0;exitPerimeter=0;entryPerimeter=0;labelBackgroundColor=none;fontColor=default;" edge="1" parent="1" source="gbKqkkttoXDkYdt1FxoY-89" target="gbKqkkttoXDkYdt1FxoY-79">
          <mxGeometry relative="1" as="geometry" />
        </mxCell>
        <mxCell id="WHsfBUfXLclG-ORaUZF6-6" value="&lt;font style=&quot;font-size: 14px;&quot;&gt;В2&lt;/font&gt;" style="edgeLabel;html=1;align=center;verticalAlign=middle;resizable=0;points=[];labelBackgroundColor=none;" connectable="0" vertex="1" parent="WHsfBUfXLclG-ORaUZF6-3">
          <mxGeometry x="-0.0433" y="-1" relative="1" as="geometry">
            <mxPoint as="offset" />
          </mxGeometry>
        </mxCell>
        <mxCell id="gbKqkkttoXDkYdt1FxoY-89" value="&lt;font style=&quot;font-size: 14px;&quot;&gt;2. Включена в сеть&lt;/font&gt;" style="rounded=0;whiteSpace=wrap;html=1;labelBackgroundColor=none;" vertex="1" parent="1">
          <mxGeometry x="50" y="600" width="150" height="60" as="geometry" />
        </mxCell>
        <mxCell id="gbKqkkttoXDkYdt1FxoY-90" value="B1 - Подключить к сети электропитания" style="text;html=1;align=left;verticalAlign=middle;whiteSpace=wrap;rounded=0;labelBackgroundColor=none;" vertex="1" parent="1">
          <mxGeometry x="280" y="512" width="220" height="30" as="geometry" />
        </mxCell>
        <mxCell id="gbKqkkttoXDkYdt1FxoY-91" value="B2 - Выключить из сети" style="text;html=1;align=left;verticalAlign=middle;whiteSpace=wrap;rounded=0;labelBackgroundColor=none;" vertex="1" parent="1">
          <mxGeometry x="281.5" y="547" width="220" height="30" as="geometry" />
        </mxCell>
        <mxCell id="WHsfBUfXLclG-ORaUZF6-7" value="" style="shape=table;startSize=0;container=1;collapsible=0;childLayout=tableLayout;labelBackgroundColor=none;" vertex="1" parent="1">
          <mxGeometry x="550" y="485" width="180" height="120" as="geometry" />
        </mxCell>
        <mxCell id="WHsfBUfXLclG-ORaUZF6-8" value="" style="shape=tableRow;horizontal=0;startSize=0;swimlaneHead=0;swimlaneBody=0;top=0;left=0;bottom=0;right=0;collapsible=0;dropTarget=0;fillColor=none;points=[[0,0.5],[1,0.5]];portConstraint=eastwest;labelBackgroundColor=none;" vertex="1" parent="WHsfBUfXLclG-ORaUZF6-7">
          <mxGeometry width="180" height="40" as="geometry" />
        </mxCell>
        <mxCell id="WHsfBUfXLclG-ORaUZF6-9" value="" style="shape=partialRectangle;html=1;whiteSpace=wrap;connectable=0;overflow=hidden;fillColor=none;top=0;left=0;bottom=0;right=0;pointerEvents=1;labelBackgroundColor=none;" vertex="1" parent="WHsfBUfXLclG-ORaUZF6-8">
          <mxGeometry width="60" height="40" as="geometry">
            <mxRectangle width="60" height="40" as="alternateBounds" />
          </mxGeometry>
        </mxCell>
        <mxCell id="WHsfBUfXLclG-ORaUZF6-10" value="В1" style="shape=partialRectangle;html=1;whiteSpace=wrap;connectable=0;overflow=hidden;fillColor=none;top=0;left=0;bottom=0;right=0;pointerEvents=1;labelBackgroundColor=none;" vertex="1" parent="WHsfBUfXLclG-ORaUZF6-8">
          <mxGeometry x="60" width="60" height="40" as="geometry">
            <mxRectangle width="60" height="40" as="alternateBounds" />
          </mxGeometry>
        </mxCell>
        <mxCell id="WHsfBUfXLclG-ORaUZF6-11" value="В2" style="shape=partialRectangle;html=1;whiteSpace=wrap;connectable=0;overflow=hidden;fillColor=none;top=0;left=0;bottom=0;right=0;pointerEvents=1;labelBackgroundColor=none;" vertex="1" parent="WHsfBUfXLclG-ORaUZF6-8">
          <mxGeometry x="120" width="60" height="40" as="geometry">
            <mxRectangle width="60" height="40" as="alternateBounds" />
          </mxGeometry>
        </mxCell>
        <mxCell id="WHsfBUfXLclG-ORaUZF6-12" value="" style="shape=tableRow;horizontal=0;startSize=0;swimlaneHead=0;swimlaneBody=0;top=0;left=0;bottom=0;right=0;collapsible=0;dropTarget=0;fillColor=none;points=[[0,0.5],[1,0.5]];portConstraint=eastwest;labelBackgroundColor=none;" vertex="1" parent="WHsfBUfXLclG-ORaUZF6-7">
          <mxGeometry y="40" width="180" height="40" as="geometry" />
        </mxCell>
        <mxCell id="WHsfBUfXLclG-ORaUZF6-13" value="1" style="shape=partialRectangle;html=1;whiteSpace=wrap;connectable=0;overflow=hidden;fillColor=none;top=0;left=0;bottom=0;right=0;pointerEvents=1;labelBackgroundColor=none;" vertex="1" parent="WHsfBUfXLclG-ORaUZF6-12">
          <mxGeometry width="60" height="40" as="geometry">
            <mxRectangle width="60" height="40" as="alternateBounds" />
          </mxGeometry>
        </mxCell>
        <mxCell id="WHsfBUfXLclG-ORaUZF6-14" value="2" style="shape=partialRectangle;html=1;whiteSpace=wrap;connectable=0;overflow=hidden;fillColor=none;top=0;left=0;bottom=0;right=0;pointerEvents=1;labelBackgroundColor=none;" vertex="1" parent="WHsfBUfXLclG-ORaUZF6-12">
          <mxGeometry x="60" width="60" height="40" as="geometry">
            <mxRectangle width="60" height="40" as="alternateBounds" />
          </mxGeometry>
        </mxCell>
        <mxCell id="WHsfBUfXLclG-ORaUZF6-15" value="-" style="shape=partialRectangle;html=1;whiteSpace=wrap;connectable=0;overflow=hidden;fillColor=none;top=0;left=0;bottom=0;right=0;pointerEvents=1;labelBackgroundColor=none;" vertex="1" parent="WHsfBUfXLclG-ORaUZF6-12">
          <mxGeometry x="120" width="60" height="40" as="geometry">
            <mxRectangle width="60" height="40" as="alternateBounds" />
          </mxGeometry>
        </mxCell>
        <mxCell id="WHsfBUfXLclG-ORaUZF6-16" value="" style="shape=tableRow;horizontal=0;startSize=0;swimlaneHead=0;swimlaneBody=0;top=0;left=0;bottom=0;right=0;collapsible=0;dropTarget=0;fillColor=none;points=[[0,0.5],[1,0.5]];portConstraint=eastwest;labelBackgroundColor=none;" vertex="1" parent="WHsfBUfXLclG-ORaUZF6-7">
          <mxGeometry y="80" width="180" height="40" as="geometry" />
        </mxCell>
        <mxCell id="WHsfBUfXLclG-ORaUZF6-17" value="2" style="shape=partialRectangle;html=1;whiteSpace=wrap;connectable=0;overflow=hidden;fillColor=none;top=0;left=0;bottom=0;right=0;pointerEvents=1;labelBackgroundColor=none;" vertex="1" parent="WHsfBUfXLclG-ORaUZF6-16">
          <mxGeometry width="60" height="40" as="geometry">
            <mxRectangle width="60" height="40" as="alternateBounds" />
          </mxGeometry>
        </mxCell>
        <mxCell id="WHsfBUfXLclG-ORaUZF6-18" value="-" style="shape=partialRectangle;html=1;whiteSpace=wrap;connectable=0;overflow=hidden;fillColor=none;top=0;left=0;bottom=0;right=0;pointerEvents=1;labelBackgroundColor=none;" vertex="1" parent="WHsfBUfXLclG-ORaUZF6-16">
          <mxGeometry x="60" width="60" height="40" as="geometry">
            <mxRectangle width="60" height="40" as="alternateBounds" />
          </mxGeometry>
        </mxCell>
        <mxCell id="WHsfBUfXLclG-ORaUZF6-19" value="1" style="shape=partialRectangle;html=1;whiteSpace=wrap;connectable=0;overflow=hidden;fillColor=none;top=0;left=0;bottom=0;right=0;pointerEvents=1;labelBackgroundColor=none;" vertex="1" parent="WHsfBUfXLclG-ORaUZF6-16">
          <mxGeometry x="120" width="60" height="40" as="geometry">
            <mxRectangle width="60" height="40" as="alternateBounds" />
          </mxGeometry>
        </mxCell>
        <mxCell id="WHsfBUfXLclG-ORaUZF6-20" value="&lt;font style=&quot;font-size: 20px;&quot;&gt;&lt;b&gt;Вилка&lt;/b&gt;&lt;/font&gt;" style="text;html=1;align=center;verticalAlign=middle;whiteSpace=wrap;rounded=0;labelBackgroundColor=none;" vertex="1" parent="1">
          <mxGeometry x="121" y="410" width="206" height="30" as="geometry" />
        </mxCell>
        <mxCell id="WHsfBUfXLclG-ORaUZF6-21" style="edgeStyle=orthogonalEdgeStyle;rounded=0;orthogonalLoop=1;jettySize=auto;html=1;entryX=0.406;entryY=0;entryDx=0;entryDy=0;entryPerimeter=0;exitX=0.405;exitY=1.007;exitDx=0;exitDy=0;exitPerimeter=0;labelBackgroundColor=none;fontColor=default;" edge="1" parent="1" source="WHsfBUfXLclG-ORaUZF6-23" target="WHsfBUfXLclG-ORaUZF6-26">
          <mxGeometry relative="1" as="geometry" />
        </mxCell>
        <mxCell id="WHsfBUfXLclG-ORaUZF6-22" value="&lt;font style=&quot;font-size: 14px;&quot;&gt;Э1&lt;/font&gt;" style="edgeLabel;html=1;align=center;verticalAlign=middle;resizable=0;points=[];labelBackgroundColor=none;" connectable="0" vertex="1" parent="WHsfBUfXLclG-ORaUZF6-21">
          <mxGeometry x="0.0045" relative="1" as="geometry">
            <mxPoint as="offset" />
          </mxGeometry>
        </mxCell>
        <mxCell id="WHsfBUfXLclG-ORaUZF6-23" value="&lt;font style=&quot;font-size: 14px;&quot;&gt;1. Выключен&lt;/font&gt;" style="rounded=0;whiteSpace=wrap;html=1;labelBackgroundColor=none;" vertex="1" parent="1">
          <mxGeometry x="100" y="790" width="130" height="60" as="geometry" />
        </mxCell>
        <mxCell id="WHsfBUfXLclG-ORaUZF6-24" style="edgeStyle=orthogonalEdgeStyle;rounded=0;orthogonalLoop=1;jettySize=auto;html=1;entryX=0.597;entryY=1.005;entryDx=0;entryDy=0;exitX=0.587;exitY=0.004;exitDx=0;exitDy=0;exitPerimeter=0;entryPerimeter=0;labelBackgroundColor=none;fontColor=default;" edge="1" parent="1" source="WHsfBUfXLclG-ORaUZF6-26" target="WHsfBUfXLclG-ORaUZF6-23">
          <mxGeometry relative="1" as="geometry" />
        </mxCell>
        <mxCell id="WHsfBUfXLclG-ORaUZF6-25" value="&lt;font style=&quot;font-size: 14px;&quot;&gt;Э2&lt;/font&gt;" style="edgeLabel;html=1;align=center;verticalAlign=middle;resizable=0;points=[];labelBackgroundColor=none;" connectable="0" vertex="1" parent="WHsfBUfXLclG-ORaUZF6-24">
          <mxGeometry x="-0.0433" y="-1" relative="1" as="geometry">
            <mxPoint as="offset" />
          </mxGeometry>
        </mxCell>
        <mxCell id="WHsfBUfXLclG-ORaUZF6-26" value="&lt;font style=&quot;font-size: 14px;&quot;&gt;2. Включен&lt;/font&gt;" style="rounded=0;whiteSpace=wrap;html=1;labelBackgroundColor=none;" vertex="1" parent="1">
          <mxGeometry x="90" y="920" width="150" height="60" as="geometry" />
        </mxCell>
        <mxCell id="WHsfBUfXLclG-ORaUZF6-27" value="Э1 - Включить" style="text;html=1;align=left;verticalAlign=middle;whiteSpace=wrap;rounded=0;labelBackgroundColor=none;" vertex="1" parent="1">
          <mxGeometry x="320" y="832" width="220" height="30" as="geometry" />
        </mxCell>
        <mxCell id="WHsfBUfXLclG-ORaUZF6-28" value="Э2 - Выключить" style="text;html=1;align=left;verticalAlign=middle;whiteSpace=wrap;rounded=0;labelBackgroundColor=none;" vertex="1" parent="1">
          <mxGeometry x="321.5" y="867" width="220" height="30" as="geometry" />
        </mxCell>
        <mxCell id="WHsfBUfXLclG-ORaUZF6-29" value="" style="shape=table;startSize=0;container=1;collapsible=0;childLayout=tableLayout;labelBackgroundColor=none;" vertex="1" parent="1">
          <mxGeometry x="590" y="805" width="180" height="120" as="geometry" />
        </mxCell>
        <mxCell id="WHsfBUfXLclG-ORaUZF6-30" value="" style="shape=tableRow;horizontal=0;startSize=0;swimlaneHead=0;swimlaneBody=0;top=0;left=0;bottom=0;right=0;collapsible=0;dropTarget=0;fillColor=none;points=[[0,0.5],[1,0.5]];portConstraint=eastwest;labelBackgroundColor=none;" vertex="1" parent="WHsfBUfXLclG-ORaUZF6-29">
          <mxGeometry width="180" height="40" as="geometry" />
        </mxCell>
        <mxCell id="WHsfBUfXLclG-ORaUZF6-31" value="" style="shape=partialRectangle;html=1;whiteSpace=wrap;connectable=0;overflow=hidden;fillColor=none;top=0;left=0;bottom=0;right=0;pointerEvents=1;labelBackgroundColor=none;" vertex="1" parent="WHsfBUfXLclG-ORaUZF6-30">
          <mxGeometry width="60" height="40" as="geometry">
            <mxRectangle width="60" height="40" as="alternateBounds" />
          </mxGeometry>
        </mxCell>
        <mxCell id="WHsfBUfXLclG-ORaUZF6-32" value="Э1" style="shape=partialRectangle;html=1;whiteSpace=wrap;connectable=0;overflow=hidden;fillColor=none;top=0;left=0;bottom=0;right=0;pointerEvents=1;labelBackgroundColor=none;" vertex="1" parent="WHsfBUfXLclG-ORaUZF6-30">
          <mxGeometry x="60" width="60" height="40" as="geometry">
            <mxRectangle width="60" height="40" as="alternateBounds" />
          </mxGeometry>
        </mxCell>
        <mxCell id="WHsfBUfXLclG-ORaUZF6-33" value="Э2" style="shape=partialRectangle;html=1;whiteSpace=wrap;connectable=0;overflow=hidden;fillColor=none;top=0;left=0;bottom=0;right=0;pointerEvents=1;labelBackgroundColor=none;" vertex="1" parent="WHsfBUfXLclG-ORaUZF6-30">
          <mxGeometry x="120" width="60" height="40" as="geometry">
            <mxRectangle width="60" height="40" as="alternateBounds" />
          </mxGeometry>
        </mxCell>
        <mxCell id="WHsfBUfXLclG-ORaUZF6-34" value="" style="shape=tableRow;horizontal=0;startSize=0;swimlaneHead=0;swimlaneBody=0;top=0;left=0;bottom=0;right=0;collapsible=0;dropTarget=0;fillColor=none;points=[[0,0.5],[1,0.5]];portConstraint=eastwest;labelBackgroundColor=none;" vertex="1" parent="WHsfBUfXLclG-ORaUZF6-29">
          <mxGeometry y="40" width="180" height="40" as="geometry" />
        </mxCell>
        <mxCell id="WHsfBUfXLclG-ORaUZF6-35" value="1" style="shape=partialRectangle;html=1;whiteSpace=wrap;connectable=0;overflow=hidden;fillColor=none;top=0;left=0;bottom=0;right=0;pointerEvents=1;labelBackgroundColor=none;" vertex="1" parent="WHsfBUfXLclG-ORaUZF6-34">
          <mxGeometry width="60" height="40" as="geometry">
            <mxRectangle width="60" height="40" as="alternateBounds" />
          </mxGeometry>
        </mxCell>
        <mxCell id="WHsfBUfXLclG-ORaUZF6-36" value="2" style="shape=partialRectangle;html=1;whiteSpace=wrap;connectable=0;overflow=hidden;fillColor=none;top=0;left=0;bottom=0;right=0;pointerEvents=1;labelBackgroundColor=none;" vertex="1" parent="WHsfBUfXLclG-ORaUZF6-34">
          <mxGeometry x="60" width="60" height="40" as="geometry">
            <mxRectangle width="60" height="40" as="alternateBounds" />
          </mxGeometry>
        </mxCell>
        <mxCell id="WHsfBUfXLclG-ORaUZF6-37" value="-" style="shape=partialRectangle;html=1;whiteSpace=wrap;connectable=0;overflow=hidden;fillColor=none;top=0;left=0;bottom=0;right=0;pointerEvents=1;labelBackgroundColor=none;" vertex="1" parent="WHsfBUfXLclG-ORaUZF6-34">
          <mxGeometry x="120" width="60" height="40" as="geometry">
            <mxRectangle width="60" height="40" as="alternateBounds" />
          </mxGeometry>
        </mxCell>
        <mxCell id="WHsfBUfXLclG-ORaUZF6-38" value="" style="shape=tableRow;horizontal=0;startSize=0;swimlaneHead=0;swimlaneBody=0;top=0;left=0;bottom=0;right=0;collapsible=0;dropTarget=0;fillColor=none;points=[[0,0.5],[1,0.5]];portConstraint=eastwest;labelBackgroundColor=none;" vertex="1" parent="WHsfBUfXLclG-ORaUZF6-29">
          <mxGeometry y="80" width="180" height="40" as="geometry" />
        </mxCell>
        <mxCell id="WHsfBUfXLclG-ORaUZF6-39" value="2" style="shape=partialRectangle;html=1;whiteSpace=wrap;connectable=0;overflow=hidden;fillColor=none;top=0;left=0;bottom=0;right=0;pointerEvents=1;labelBackgroundColor=none;" vertex="1" parent="WHsfBUfXLclG-ORaUZF6-38">
          <mxGeometry width="60" height="40" as="geometry">
            <mxRectangle width="60" height="40" as="alternateBounds" />
          </mxGeometry>
        </mxCell>
        <mxCell id="WHsfBUfXLclG-ORaUZF6-40" value="-" style="shape=partialRectangle;html=1;whiteSpace=wrap;connectable=0;overflow=hidden;fillColor=none;top=0;left=0;bottom=0;right=0;pointerEvents=1;labelBackgroundColor=none;" vertex="1" parent="WHsfBUfXLclG-ORaUZF6-38">
          <mxGeometry x="60" width="60" height="40" as="geometry">
            <mxRectangle width="60" height="40" as="alternateBounds" />
          </mxGeometry>
        </mxCell>
        <mxCell id="WHsfBUfXLclG-ORaUZF6-41" value="1" style="shape=partialRectangle;html=1;whiteSpace=wrap;connectable=0;overflow=hidden;fillColor=none;top=0;left=0;bottom=0;right=0;pointerEvents=1;labelBackgroundColor=none;" vertex="1" parent="WHsfBUfXLclG-ORaUZF6-38">
          <mxGeometry x="120" width="60" height="40" as="geometry">
            <mxRectangle width="60" height="40" as="alternateBounds" />
          </mxGeometry>
        </mxCell>
        <mxCell id="WHsfBUfXLclG-ORaUZF6-42" value="&lt;font style=&quot;font-size: 20px;&quot;&gt;&lt;b&gt;Электронагреватель&lt;/b&gt;&lt;/font&gt;" style="text;html=1;align=center;verticalAlign=middle;whiteSpace=wrap;rounded=0;labelBackgroundColor=none;" vertex="1" parent="1">
          <mxGeometry x="200" y="730" width="206" height="30" as="geometry" />
        </mxCell>
        <mxCell id="jCTq1OI_J1pbugujm0EU-1" style="edgeStyle=orthogonalEdgeStyle;rounded=0;orthogonalLoop=1;jettySize=auto;html=1;entryX=0.406;entryY=0;entryDx=0;entryDy=0;entryPerimeter=0;exitX=0.405;exitY=1.007;exitDx=0;exitDy=0;exitPerimeter=0;labelBackgroundColor=none;fontColor=default;" edge="1" parent="1" source="jCTq1OI_J1pbugujm0EU-3" target="jCTq1OI_J1pbugujm0EU-6">
          <mxGeometry relative="1" as="geometry" />
        </mxCell>
        <mxCell id="jCTq1OI_J1pbugujm0EU-2" value="&lt;font style=&quot;font-size: 14px;&quot;&gt;П1&lt;/font&gt;" style="edgeLabel;html=1;align=center;verticalAlign=middle;resizable=0;points=[];labelBackgroundColor=none;" connectable="0" vertex="1" parent="jCTq1OI_J1pbugujm0EU-1">
          <mxGeometry x="0.0045" relative="1" as="geometry">
            <mxPoint as="offset" />
          </mxGeometry>
        </mxCell>
        <mxCell id="jCTq1OI_J1pbugujm0EU-3" value="&lt;font style=&quot;font-size: 14px;&quot;&gt;1. Мощность не задана&lt;/font&gt;" style="rounded=0;whiteSpace=wrap;html=1;labelBackgroundColor=none;" vertex="1" parent="1">
          <mxGeometry x="84" y="1090" width="130" height="60" as="geometry" />
        </mxCell>
        <mxCell id="jCTq1OI_J1pbugujm0EU-4" style="edgeStyle=orthogonalEdgeStyle;rounded=0;orthogonalLoop=1;jettySize=auto;html=1;entryX=0.597;entryY=1.005;entryDx=0;entryDy=0;exitX=0.587;exitY=0.004;exitDx=0;exitDy=0;exitPerimeter=0;entryPerimeter=0;labelBackgroundColor=none;fontColor=default;" edge="1" parent="1" source="jCTq1OI_J1pbugujm0EU-6" target="jCTq1OI_J1pbugujm0EU-3">
          <mxGeometry relative="1" as="geometry" />
        </mxCell>
        <mxCell id="jCTq1OI_J1pbugujm0EU-5" value="&lt;font style=&quot;font-size: 14px;&quot;&gt;П2&lt;/font&gt;" style="edgeLabel;html=1;align=center;verticalAlign=middle;resizable=0;points=[];labelBackgroundColor=none;" connectable="0" vertex="1" parent="jCTq1OI_J1pbugujm0EU-4">
          <mxGeometry x="-0.0433" y="-1" relative="1" as="geometry">
            <mxPoint as="offset" />
          </mxGeometry>
        </mxCell>
        <mxCell id="jCTq1OI_J1pbugujm0EU-6" value="&lt;font style=&quot;font-size: 14px;&quot;&gt;2. Мощность задана&lt;/font&gt;" style="rounded=0;whiteSpace=wrap;html=1;labelBackgroundColor=none;" vertex="1" parent="1">
          <mxGeometry x="74" y="1220" width="150" height="60" as="geometry" />
        </mxCell>
        <mxCell id="jCTq1OI_J1pbugujm0EU-7" value="П1 - Выбрать мощность" style="text;html=1;align=left;verticalAlign=middle;whiteSpace=wrap;rounded=0;labelBackgroundColor=none;" vertex="1" parent="1">
          <mxGeometry x="305.5" y="1137" width="220" height="30" as="geometry" />
        </mxCell>
        <mxCell id="jCTq1OI_J1pbugujm0EU-8" value="П2 - Сбросить мощность" style="text;html=1;align=left;verticalAlign=middle;whiteSpace=wrap;rounded=0;labelBackgroundColor=none;" vertex="1" parent="1">
          <mxGeometry x="305.5" y="1167" width="220" height="30" as="geometry" />
        </mxCell>
        <mxCell id="jCTq1OI_J1pbugujm0EU-9" value="" style="shape=table;startSize=0;container=1;collapsible=0;childLayout=tableLayout;labelBackgroundColor=none;" vertex="1" parent="1">
          <mxGeometry x="574" y="1105" width="180" height="120" as="geometry" />
        </mxCell>
        <mxCell id="jCTq1OI_J1pbugujm0EU-10" value="" style="shape=tableRow;horizontal=0;startSize=0;swimlaneHead=0;swimlaneBody=0;top=0;left=0;bottom=0;right=0;collapsible=0;dropTarget=0;fillColor=none;points=[[0,0.5],[1,0.5]];portConstraint=eastwest;labelBackgroundColor=none;" vertex="1" parent="jCTq1OI_J1pbugujm0EU-9">
          <mxGeometry width="180" height="40" as="geometry" />
        </mxCell>
        <mxCell id="jCTq1OI_J1pbugujm0EU-11" value="" style="shape=partialRectangle;html=1;whiteSpace=wrap;connectable=0;overflow=hidden;fillColor=none;top=0;left=0;bottom=0;right=0;pointerEvents=1;labelBackgroundColor=none;" vertex="1" parent="jCTq1OI_J1pbugujm0EU-10">
          <mxGeometry width="60" height="40" as="geometry">
            <mxRectangle width="60" height="40" as="alternateBounds" />
          </mxGeometry>
        </mxCell>
        <mxCell id="jCTq1OI_J1pbugujm0EU-12" value="П1" style="shape=partialRectangle;html=1;whiteSpace=wrap;connectable=0;overflow=hidden;fillColor=none;top=0;left=0;bottom=0;right=0;pointerEvents=1;labelBackgroundColor=none;" vertex="1" parent="jCTq1OI_J1pbugujm0EU-10">
          <mxGeometry x="60" width="60" height="40" as="geometry">
            <mxRectangle width="60" height="40" as="alternateBounds" />
          </mxGeometry>
        </mxCell>
        <mxCell id="jCTq1OI_J1pbugujm0EU-13" value="П2" style="shape=partialRectangle;html=1;whiteSpace=wrap;connectable=0;overflow=hidden;fillColor=none;top=0;left=0;bottom=0;right=0;pointerEvents=1;labelBackgroundColor=none;" vertex="1" parent="jCTq1OI_J1pbugujm0EU-10">
          <mxGeometry x="120" width="60" height="40" as="geometry">
            <mxRectangle width="60" height="40" as="alternateBounds" />
          </mxGeometry>
        </mxCell>
        <mxCell id="jCTq1OI_J1pbugujm0EU-14" value="" style="shape=tableRow;horizontal=0;startSize=0;swimlaneHead=0;swimlaneBody=0;top=0;left=0;bottom=0;right=0;collapsible=0;dropTarget=0;fillColor=none;points=[[0,0.5],[1,0.5]];portConstraint=eastwest;labelBackgroundColor=none;" vertex="1" parent="jCTq1OI_J1pbugujm0EU-9">
          <mxGeometry y="40" width="180" height="40" as="geometry" />
        </mxCell>
        <mxCell id="jCTq1OI_J1pbugujm0EU-15" value="1" style="shape=partialRectangle;html=1;whiteSpace=wrap;connectable=0;overflow=hidden;fillColor=none;top=0;left=0;bottom=0;right=0;pointerEvents=1;labelBackgroundColor=none;" vertex="1" parent="jCTq1OI_J1pbugujm0EU-14">
          <mxGeometry width="60" height="40" as="geometry">
            <mxRectangle width="60" height="40" as="alternateBounds" />
          </mxGeometry>
        </mxCell>
        <mxCell id="jCTq1OI_J1pbugujm0EU-16" value="2" style="shape=partialRectangle;html=1;whiteSpace=wrap;connectable=0;overflow=hidden;fillColor=none;top=0;left=0;bottom=0;right=0;pointerEvents=1;labelBackgroundColor=none;" vertex="1" parent="jCTq1OI_J1pbugujm0EU-14">
          <mxGeometry x="60" width="60" height="40" as="geometry">
            <mxRectangle width="60" height="40" as="alternateBounds" />
          </mxGeometry>
        </mxCell>
        <mxCell id="jCTq1OI_J1pbugujm0EU-17" value="-" style="shape=partialRectangle;html=1;whiteSpace=wrap;connectable=0;overflow=hidden;fillColor=none;top=0;left=0;bottom=0;right=0;pointerEvents=1;labelBackgroundColor=none;" vertex="1" parent="jCTq1OI_J1pbugujm0EU-14">
          <mxGeometry x="120" width="60" height="40" as="geometry">
            <mxRectangle width="60" height="40" as="alternateBounds" />
          </mxGeometry>
        </mxCell>
        <mxCell id="jCTq1OI_J1pbugujm0EU-18" value="" style="shape=tableRow;horizontal=0;startSize=0;swimlaneHead=0;swimlaneBody=0;top=0;left=0;bottom=0;right=0;collapsible=0;dropTarget=0;fillColor=none;points=[[0,0.5],[1,0.5]];portConstraint=eastwest;labelBackgroundColor=none;" vertex="1" parent="jCTq1OI_J1pbugujm0EU-9">
          <mxGeometry y="80" width="180" height="40" as="geometry" />
        </mxCell>
        <mxCell id="jCTq1OI_J1pbugujm0EU-19" value="2" style="shape=partialRectangle;html=1;whiteSpace=wrap;connectable=0;overflow=hidden;fillColor=none;top=0;left=0;bottom=0;right=0;pointerEvents=1;labelBackgroundColor=none;" vertex="1" parent="jCTq1OI_J1pbugujm0EU-18">
          <mxGeometry width="60" height="40" as="geometry">
            <mxRectangle width="60" height="40" as="alternateBounds" />
          </mxGeometry>
        </mxCell>
        <mxCell id="jCTq1OI_J1pbugujm0EU-20" value="-" style="shape=partialRectangle;html=1;whiteSpace=wrap;connectable=0;overflow=hidden;fillColor=none;top=0;left=0;bottom=0;right=0;pointerEvents=1;labelBackgroundColor=none;" vertex="1" parent="jCTq1OI_J1pbugujm0EU-18">
          <mxGeometry x="60" width="60" height="40" as="geometry">
            <mxRectangle width="60" height="40" as="alternateBounds" />
          </mxGeometry>
        </mxCell>
        <mxCell id="jCTq1OI_J1pbugujm0EU-21" value="1" style="shape=partialRectangle;html=1;whiteSpace=wrap;connectable=0;overflow=hidden;fillColor=none;top=0;left=0;bottom=0;right=0;pointerEvents=1;labelBackgroundColor=none;" vertex="1" parent="jCTq1OI_J1pbugujm0EU-18">
          <mxGeometry x="120" width="60" height="40" as="geometry">
            <mxRectangle width="60" height="40" as="alternateBounds" />
          </mxGeometry>
        </mxCell>
        <mxCell id="jCTq1OI_J1pbugujm0EU-22" value="&lt;font style=&quot;font-size: 20px;&quot;&gt;&lt;b&gt;Панель управления&lt;/b&gt;&lt;/font&gt;" style="text;html=1;align=center;verticalAlign=middle;whiteSpace=wrap;rounded=0;labelBackgroundColor=none;" vertex="1" parent="1">
          <mxGeometry x="234" y="1030" width="206" height="30" as="geometry" />
        </mxCell>
        <mxCell id="JFUJ_gbj5l0kmA5mDoD1-26" style="edgeStyle=orthogonalEdgeStyle;rounded=0;orthogonalLoop=1;jettySize=auto;html=1;startArrow=classic;startFill=1;endArrow=none;labelBackgroundColor=none;fontColor=default;" edge="1" parent="1" source="JFUJ_gbj5l0kmA5mDoD1-3" target="JFUJ_gbj5l0kmA5mDoD1-23">
          <mxGeometry relative="1" as="geometry">
            <Array as="points">
              <mxPoint x="240" y="1430" />
              <mxPoint x="240" y="1430" />
            </Array>
          </mxGeometry>
        </mxCell>
        <mxCell id="JFUJ_gbj5l0kmA5mDoD1-33" value="&lt;font style=&quot;font-size: 14px;&quot;&gt;Д2&lt;/font&gt;" style="edgeLabel;html=1;align=center;verticalAlign=middle;resizable=0;points=[];labelBackgroundColor=none;" connectable="0" vertex="1" parent="JFUJ_gbj5l0kmA5mDoD1-26">
          <mxGeometry x="-0.113" relative="1" as="geometry">
            <mxPoint as="offset" />
          </mxGeometry>
        </mxCell>
        <mxCell id="JFUJ_gbj5l0kmA5mDoD1-3" value="&lt;font style=&quot;font-size: 14px;&quot;&gt;1. Выключен&lt;/font&gt;" style="rounded=0;whiteSpace=wrap;html=1;labelBackgroundColor=none;" vertex="1" parent="1">
          <mxGeometry x="288" y="1415" width="130" height="60" as="geometry" />
        </mxCell>
        <mxCell id="JFUJ_gbj5l0kmA5mDoD1-25" style="edgeStyle=orthogonalEdgeStyle;rounded=0;orthogonalLoop=1;jettySize=auto;html=1;entryX=0.5;entryY=1;entryDx=0;entryDy=0;labelBackgroundColor=none;fontColor=default;" edge="1" parent="1" source="JFUJ_gbj5l0kmA5mDoD1-6" target="JFUJ_gbj5l0kmA5mDoD1-3">
          <mxGeometry relative="1" as="geometry" />
        </mxCell>
        <mxCell id="JFUJ_gbj5l0kmA5mDoD1-35" value="&lt;span style=&quot;font-size: 14px;&quot;&gt;Д2&lt;/span&gt;" style="edgeLabel;html=1;align=center;verticalAlign=middle;resizable=0;points=[];labelBackgroundColor=none;" connectable="0" vertex="1" parent="JFUJ_gbj5l0kmA5mDoD1-25">
          <mxGeometry x="-0.0355" y="1" relative="1" as="geometry">
            <mxPoint as="offset" />
          </mxGeometry>
        </mxCell>
        <mxCell id="JFUJ_gbj5l0kmA5mDoD1-6" value="&lt;font style=&quot;font-size: 14px;&quot;&gt;3. Фиксированние критической температуры&lt;/font&gt;" style="rounded=0;whiteSpace=wrap;html=1;labelBackgroundColor=none;" vertex="1" parent="1">
          <mxGeometry x="50" y="1560" width="150" height="60" as="geometry" />
        </mxCell>
        <mxCell id="JFUJ_gbj5l0kmA5mDoD1-7" value="Д1 - Включить" style="text;html=1;align=left;verticalAlign=middle;whiteSpace=wrap;rounded=0;labelBackgroundColor=none;" vertex="1" parent="1">
          <mxGeometry x="480" y="1460" width="220" height="30" as="geometry" />
        </mxCell>
        <mxCell id="JFUJ_gbj5l0kmA5mDoD1-8" value="Д2 - Выключить (подать сигнал о перегреве)" style="text;html=1;align=left;verticalAlign=middle;whiteSpace=wrap;rounded=0;labelBackgroundColor=none;" vertex="1" parent="1">
          <mxGeometry x="481.5" y="1495" width="220" height="30" as="geometry" />
        </mxCell>
        <mxCell id="JFUJ_gbj5l0kmA5mDoD1-22" value="&lt;font style=&quot;font-size: 20px;&quot;&gt;&lt;b&gt;Датчик перегрева&lt;/b&gt;&lt;/font&gt;" style="text;html=1;align=center;verticalAlign=middle;whiteSpace=wrap;rounded=0;labelBackgroundColor=none;" vertex="1" parent="1">
          <mxGeometry x="161" y="1340" width="206" height="30" as="geometry" />
        </mxCell>
        <mxCell id="JFUJ_gbj5l0kmA5mDoD1-27" style="edgeStyle=orthogonalEdgeStyle;rounded=0;orthogonalLoop=1;jettySize=auto;html=1;startArrow=classic;startFill=1;endArrow=none;labelBackgroundColor=none;fontColor=default;" edge="1" parent="1" source="JFUJ_gbj5l0kmA5mDoD1-23" target="JFUJ_gbj5l0kmA5mDoD1-3">
          <mxGeometry relative="1" as="geometry">
            <Array as="points">
              <mxPoint x="240" y="1460" />
              <mxPoint x="240" y="1460" />
            </Array>
          </mxGeometry>
        </mxCell>
        <mxCell id="JFUJ_gbj5l0kmA5mDoD1-31" value="&lt;font style=&quot;font-size: 14px;&quot;&gt;Д1&lt;/font&gt;" style="edgeLabel;html=1;align=center;verticalAlign=middle;resizable=0;points=[];labelBackgroundColor=none;" connectable="0" vertex="1" parent="JFUJ_gbj5l0kmA5mDoD1-27">
          <mxGeometry x="-0.1043" y="-1" relative="1" as="geometry">
            <mxPoint as="offset" />
          </mxGeometry>
        </mxCell>
        <mxCell id="JFUJ_gbj5l0kmA5mDoD1-28" style="edgeStyle=orthogonalEdgeStyle;rounded=0;orthogonalLoop=1;jettySize=auto;html=1;entryX=0.5;entryY=0;entryDx=0;entryDy=0;labelBackgroundColor=none;fontColor=default;" edge="1" parent="1" source="JFUJ_gbj5l0kmA5mDoD1-23" target="JFUJ_gbj5l0kmA5mDoD1-6">
          <mxGeometry relative="1" as="geometry" />
        </mxCell>
        <mxCell id="JFUJ_gbj5l0kmA5mDoD1-34" value="&lt;font style=&quot;font-size: 14px;&quot;&gt;Д3&lt;/font&gt;" style="edgeLabel;html=1;align=center;verticalAlign=middle;resizable=0;points=[];labelBackgroundColor=none;" connectable="0" vertex="1" parent="JFUJ_gbj5l0kmA5mDoD1-28">
          <mxGeometry x="-0.0944" relative="1" as="geometry">
            <mxPoint as="offset" />
          </mxGeometry>
        </mxCell>
        <mxCell id="JFUJ_gbj5l0kmA5mDoD1-23" value="&lt;font style=&quot;font-size: 14px;&quot;&gt;2. Фиксирование допустимой температуры&lt;/font&gt;" style="rounded=0;whiteSpace=wrap;html=1;labelBackgroundColor=none;" vertex="1" parent="1">
          <mxGeometry x="60" y="1415" width="130" height="60" as="geometry" />
        </mxCell>
        <mxCell id="JFUJ_gbj5l0kmA5mDoD1-30" value="Д3 - Достижение критической температуры" style="text;html=1;align=left;verticalAlign=middle;whiteSpace=wrap;rounded=0;labelBackgroundColor=none;" vertex="1" parent="1">
          <mxGeometry x="481.5" y="1530" width="220" height="30" as="geometry" />
        </mxCell>
        <mxCell id="JFUJ_gbj5l0kmA5mDoD1-36" value="" style="shape=table;startSize=0;container=1;collapsible=0;childLayout=tableLayout;labelBackgroundColor=none;" vertex="1" parent="1">
          <mxGeometry x="710" y="1420" width="240" height="160" as="geometry" />
        </mxCell>
        <mxCell id="JFUJ_gbj5l0kmA5mDoD1-37" value="" style="shape=tableRow;horizontal=0;startSize=0;swimlaneHead=0;swimlaneBody=0;top=0;left=0;bottom=0;right=0;collapsible=0;dropTarget=0;fillColor=none;points=[[0,0.5],[1,0.5]];portConstraint=eastwest;labelBackgroundColor=none;" vertex="1" parent="JFUJ_gbj5l0kmA5mDoD1-36">
          <mxGeometry width="240" height="40" as="geometry" />
        </mxCell>
        <mxCell id="JFUJ_gbj5l0kmA5mDoD1-38" value="" style="shape=partialRectangle;html=1;whiteSpace=wrap;connectable=0;overflow=hidden;fillColor=none;top=0;left=0;bottom=0;right=0;pointerEvents=1;labelBackgroundColor=none;" vertex="1" parent="JFUJ_gbj5l0kmA5mDoD1-37">
          <mxGeometry width="60" height="40" as="geometry">
            <mxRectangle width="60" height="40" as="alternateBounds" />
          </mxGeometry>
        </mxCell>
        <mxCell id="JFUJ_gbj5l0kmA5mDoD1-39" value="Д1" style="shape=partialRectangle;html=1;whiteSpace=wrap;connectable=0;overflow=hidden;fillColor=none;top=0;left=0;bottom=0;right=0;pointerEvents=1;labelBackgroundColor=none;" vertex="1" parent="JFUJ_gbj5l0kmA5mDoD1-37">
          <mxGeometry x="60" width="60" height="40" as="geometry">
            <mxRectangle width="60" height="40" as="alternateBounds" />
          </mxGeometry>
        </mxCell>
        <mxCell id="JFUJ_gbj5l0kmA5mDoD1-40" value="Д2" style="shape=partialRectangle;html=1;whiteSpace=wrap;connectable=0;overflow=hidden;fillColor=none;top=0;left=0;bottom=0;right=0;pointerEvents=1;labelBackgroundColor=none;" vertex="1" parent="JFUJ_gbj5l0kmA5mDoD1-37">
          <mxGeometry x="120" width="60" height="40" as="geometry">
            <mxRectangle width="60" height="40" as="alternateBounds" />
          </mxGeometry>
        </mxCell>
        <mxCell id="JFUJ_gbj5l0kmA5mDoD1-41" value="Д3" style="shape=partialRectangle;html=1;whiteSpace=wrap;connectable=0;overflow=hidden;fillColor=none;top=0;left=0;bottom=0;right=0;pointerEvents=1;labelBackgroundColor=none;" vertex="1" parent="JFUJ_gbj5l0kmA5mDoD1-37">
          <mxGeometry x="180" width="60" height="40" as="geometry">
            <mxRectangle width="60" height="40" as="alternateBounds" />
          </mxGeometry>
        </mxCell>
        <mxCell id="JFUJ_gbj5l0kmA5mDoD1-42" value="" style="shape=tableRow;horizontal=0;startSize=0;swimlaneHead=0;swimlaneBody=0;top=0;left=0;bottom=0;right=0;collapsible=0;dropTarget=0;fillColor=none;points=[[0,0.5],[1,0.5]];portConstraint=eastwest;labelBackgroundColor=none;" vertex="1" parent="JFUJ_gbj5l0kmA5mDoD1-36">
          <mxGeometry y="40" width="240" height="40" as="geometry" />
        </mxCell>
        <mxCell id="JFUJ_gbj5l0kmA5mDoD1-43" value="1" style="shape=partialRectangle;html=1;whiteSpace=wrap;connectable=0;overflow=hidden;fillColor=none;top=0;left=0;bottom=0;right=0;pointerEvents=1;labelBackgroundColor=none;" vertex="1" parent="JFUJ_gbj5l0kmA5mDoD1-42">
          <mxGeometry width="60" height="40" as="geometry">
            <mxRectangle width="60" height="40" as="alternateBounds" />
          </mxGeometry>
        </mxCell>
        <mxCell id="JFUJ_gbj5l0kmA5mDoD1-44" value="2" style="shape=partialRectangle;html=1;whiteSpace=wrap;connectable=0;overflow=hidden;fillColor=none;top=0;left=0;bottom=0;right=0;pointerEvents=1;labelBackgroundColor=none;" vertex="1" parent="JFUJ_gbj5l0kmA5mDoD1-42">
          <mxGeometry x="60" width="60" height="40" as="geometry">
            <mxRectangle width="60" height="40" as="alternateBounds" />
          </mxGeometry>
        </mxCell>
        <mxCell id="JFUJ_gbj5l0kmA5mDoD1-45" value="-" style="shape=partialRectangle;html=1;whiteSpace=wrap;connectable=0;overflow=hidden;fillColor=none;top=0;left=0;bottom=0;right=0;pointerEvents=1;labelBackgroundColor=none;" vertex="1" parent="JFUJ_gbj5l0kmA5mDoD1-42">
          <mxGeometry x="120" width="60" height="40" as="geometry">
            <mxRectangle width="60" height="40" as="alternateBounds" />
          </mxGeometry>
        </mxCell>
        <mxCell id="JFUJ_gbj5l0kmA5mDoD1-46" value="-" style="shape=partialRectangle;html=1;whiteSpace=wrap;connectable=0;overflow=hidden;fillColor=none;top=0;left=0;bottom=0;right=0;pointerEvents=1;labelBackgroundColor=none;" vertex="1" parent="JFUJ_gbj5l0kmA5mDoD1-42">
          <mxGeometry x="180" width="60" height="40" as="geometry">
            <mxRectangle width="60" height="40" as="alternateBounds" />
          </mxGeometry>
        </mxCell>
        <mxCell id="JFUJ_gbj5l0kmA5mDoD1-47" value="" style="shape=tableRow;horizontal=0;startSize=0;swimlaneHead=0;swimlaneBody=0;top=0;left=0;bottom=0;right=0;collapsible=0;dropTarget=0;fillColor=none;points=[[0,0.5],[1,0.5]];portConstraint=eastwest;labelBackgroundColor=none;" vertex="1" parent="JFUJ_gbj5l0kmA5mDoD1-36">
          <mxGeometry y="80" width="240" height="40" as="geometry" />
        </mxCell>
        <mxCell id="JFUJ_gbj5l0kmA5mDoD1-48" value="2" style="shape=partialRectangle;html=1;whiteSpace=wrap;connectable=0;overflow=hidden;fillColor=none;top=0;left=0;bottom=0;right=0;pointerEvents=1;labelBackgroundColor=none;" vertex="1" parent="JFUJ_gbj5l0kmA5mDoD1-47">
          <mxGeometry width="60" height="40" as="geometry">
            <mxRectangle width="60" height="40" as="alternateBounds" />
          </mxGeometry>
        </mxCell>
        <mxCell id="JFUJ_gbj5l0kmA5mDoD1-49" value="-" style="shape=partialRectangle;html=1;whiteSpace=wrap;connectable=0;overflow=hidden;fillColor=none;top=0;left=0;bottom=0;right=0;pointerEvents=1;labelBackgroundColor=none;" vertex="1" parent="JFUJ_gbj5l0kmA5mDoD1-47">
          <mxGeometry x="60" width="60" height="40" as="geometry">
            <mxRectangle width="60" height="40" as="alternateBounds" />
          </mxGeometry>
        </mxCell>
        <mxCell id="JFUJ_gbj5l0kmA5mDoD1-50" value="1" style="shape=partialRectangle;html=1;whiteSpace=wrap;connectable=0;overflow=hidden;fillColor=none;top=0;left=0;bottom=0;right=0;pointerEvents=1;labelBackgroundColor=none;" vertex="1" parent="JFUJ_gbj5l0kmA5mDoD1-47">
          <mxGeometry x="120" width="60" height="40" as="geometry">
            <mxRectangle width="60" height="40" as="alternateBounds" />
          </mxGeometry>
        </mxCell>
        <mxCell id="JFUJ_gbj5l0kmA5mDoD1-51" value="3" style="shape=partialRectangle;html=1;whiteSpace=wrap;connectable=0;overflow=hidden;fillColor=none;top=0;left=0;bottom=0;right=0;pointerEvents=1;labelBackgroundColor=none;" vertex="1" parent="JFUJ_gbj5l0kmA5mDoD1-47">
          <mxGeometry x="180" width="60" height="40" as="geometry">
            <mxRectangle width="60" height="40" as="alternateBounds" />
          </mxGeometry>
        </mxCell>
        <mxCell id="JFUJ_gbj5l0kmA5mDoD1-52" value="" style="shape=tableRow;horizontal=0;startSize=0;swimlaneHead=0;swimlaneBody=0;top=0;left=0;bottom=0;right=0;collapsible=0;dropTarget=0;fillColor=none;points=[[0,0.5],[1,0.5]];portConstraint=eastwest;labelBackgroundColor=none;" vertex="1" parent="JFUJ_gbj5l0kmA5mDoD1-36">
          <mxGeometry y="120" width="240" height="40" as="geometry" />
        </mxCell>
        <mxCell id="JFUJ_gbj5l0kmA5mDoD1-53" value="3" style="shape=partialRectangle;html=1;whiteSpace=wrap;connectable=0;overflow=hidden;fillColor=none;top=0;left=0;bottom=0;right=0;pointerEvents=1;labelBackgroundColor=none;" vertex="1" parent="JFUJ_gbj5l0kmA5mDoD1-52">
          <mxGeometry width="60" height="40" as="geometry">
            <mxRectangle width="60" height="40" as="alternateBounds" />
          </mxGeometry>
        </mxCell>
        <mxCell id="JFUJ_gbj5l0kmA5mDoD1-54" value="-" style="shape=partialRectangle;html=1;whiteSpace=wrap;connectable=0;overflow=hidden;fillColor=none;top=0;left=0;bottom=0;right=0;pointerEvents=1;labelBackgroundColor=none;" vertex="1" parent="JFUJ_gbj5l0kmA5mDoD1-52">
          <mxGeometry x="60" width="60" height="40" as="geometry">
            <mxRectangle width="60" height="40" as="alternateBounds" />
          </mxGeometry>
        </mxCell>
        <mxCell id="JFUJ_gbj5l0kmA5mDoD1-55" value="1" style="shape=partialRectangle;html=1;whiteSpace=wrap;connectable=0;overflow=hidden;fillColor=none;top=0;left=0;bottom=0;right=0;pointerEvents=1;labelBackgroundColor=none;" vertex="1" parent="JFUJ_gbj5l0kmA5mDoD1-52">
          <mxGeometry x="120" width="60" height="40" as="geometry">
            <mxRectangle width="60" height="40" as="alternateBounds" />
          </mxGeometry>
        </mxCell>
        <mxCell id="JFUJ_gbj5l0kmA5mDoD1-56" value="-" style="shape=partialRectangle;html=1;whiteSpace=wrap;connectable=0;overflow=hidden;fillColor=none;top=0;left=0;bottom=0;right=0;pointerEvents=1;labelBackgroundColor=none;" vertex="1" parent="JFUJ_gbj5l0kmA5mDoD1-52">
          <mxGeometry x="180" width="60" height="40" as="geometry">
            <mxRectangle width="60" height="40" as="alternateBounds" />
          </mxGeometry>
        </mxCell>
        <mxCell id="FScucOQOeqTtBvvVaMdB-1" value="" style="endArrow=classic;html=1;rounded=0;entryX=1;entryY=0.25;entryDx=0;entryDy=0;labelBackgroundColor=none;fontColor=default;" edge="1" parent="1" target="9hR5Twmfe8VWlhZQ7I1L-2">
          <mxGeometry width="50" height="50" relative="1" as="geometry">
            <mxPoint x="410" y="125" as="sourcePoint" />
            <mxPoint x="530" y="340" as="targetPoint" />
          </mxGeometry>
        </mxCell>
        <mxCell id="FScucOQOeqTtBvvVaMdB-2" value="" style="endArrow=classic;html=1;rounded=0;entryX=0.546;entryY=-0.039;entryDx=0;entryDy=0;entryPerimeter=0;labelBackgroundColor=none;fontColor=default;" edge="1" parent="1" target="gbKqkkttoXDkYdt1FxoY-79">
          <mxGeometry width="50" height="50" relative="1" as="geometry">
            <mxPoint x="130" y="400" as="sourcePoint" />
            <mxPoint x="280" y="540" as="targetPoint" />
          </mxGeometry>
        </mxCell>
        <mxCell id="FScucOQOeqTtBvvVaMdB-3" value="" style="endArrow=classic;html=1;rounded=0;entryX=0.5;entryY=0;entryDx=0;entryDy=0;labelBackgroundColor=none;fontColor=default;" edge="1" parent="1" target="WHsfBUfXLclG-ORaUZF6-23">
          <mxGeometry width="50" height="50" relative="1" as="geometry">
            <mxPoint x="165" y="700" as="sourcePoint" />
            <mxPoint x="320" y="830" as="targetPoint" />
          </mxGeometry>
        </mxCell>
        <mxCell id="FScucOQOeqTtBvvVaMdB-4" value="" style="endArrow=classic;html=1;rounded=0;labelBackgroundColor=none;fontColor=default;" edge="1" parent="1">
          <mxGeometry width="50" height="50" relative="1" as="geometry">
            <mxPoint x="144" y="1020" as="sourcePoint" />
            <mxPoint x="144" y="1090" as="targetPoint" />
          </mxGeometry>
        </mxCell>
        <mxCell id="FScucOQOeqTtBvvVaMdB-5" value="" style="endArrow=classic;html=1;rounded=0;entryX=0.98;entryY=0.418;entryDx=0;entryDy=0;entryPerimeter=0;labelBackgroundColor=none;fontColor=default;" edge="1" parent="1" target="JFUJ_gbj5l0kmA5mDoD1-3">
          <mxGeometry width="50" height="50" relative="1" as="geometry">
            <mxPoint x="480" y="1440" as="sourcePoint" />
            <mxPoint x="500" y="1420" as="targetPoint" />
          </mxGeometry>
        </mxCell>
      </root>
    </mxGraphModel>
  </diagram>
  <diagram id="dmL153rZDqsjgDgsx-MF" name="МВО">
    <mxGraphModel grid="1" page="1" gridSize="10" guides="1" tooltips="1" connect="1" arrows="1" fold="1" pageScale="1" pageWidth="827" pageHeight="1169" math="0" shadow="0">
      <root>
        <mxCell id="0" />
        <mxCell id="1" parent="0" />
        <mxCell id="bq7hR0FgS6wlqoZna40s-2" style="edgeStyle=orthogonalEdgeStyle;rounded=0;orthogonalLoop=1;jettySize=auto;html=1;entryX=0.5;entryY=0;entryDx=0;entryDy=0;exitX=0;exitY=0.5;exitDx=0;exitDy=0;labelBackgroundColor=none;fontColor=default;" edge="1" parent="1" source="Vfu6OBMB87fygliHcBvU-1" target="PThf3ngzuTzbP_xElSIa-1">
          <mxGeometry relative="1" as="geometry">
            <Array as="points">
              <mxPoint x="310" y="90" />
              <mxPoint x="310" y="165" />
              <mxPoint x="354" y="165" />
            </Array>
          </mxGeometry>
        </mxCell>
        <mxCell id="4-TmSXPJYHdWITlh-lSH-2" value="&lt;font style=&quot;font-size: 14px;&quot;&gt;Э1, Э2&lt;/font&gt;" style="edgeLabel;html=1;align=center;verticalAlign=middle;resizable=0;points=[];" connectable="0" vertex="1" parent="bq7hR0FgS6wlqoZna40s-2">
          <mxGeometry x="0.0437" relative="1" as="geometry">
            <mxPoint as="offset" />
          </mxGeometry>
        </mxCell>
        <mxCell id="bq7hR0FgS6wlqoZna40s-8" style="edgeStyle=orthogonalEdgeStyle;rounded=0;orthogonalLoop=1;jettySize=auto;html=1;entryX=0.611;entryY=0;entryDx=0;entryDy=0;entryPerimeter=0;labelBackgroundColor=none;fontColor=default;" edge="1" parent="1" source="Vfu6OBMB87fygliHcBvU-1" target="Vfu6OBMB87fygliHcBvU-2">
          <mxGeometry relative="1" as="geometry" />
        </mxCell>
        <mxCell id="c7Z771N7kakBp39lQ27g-1" value="&lt;font style=&quot;font-size: 14px;&quot;&gt;Д1, Д2&lt;/font&gt;" style="edgeLabel;html=1;align=center;verticalAlign=middle;resizable=0;points=[];" connectable="0" vertex="1" parent="bq7hR0FgS6wlqoZna40s-8">
          <mxGeometry x="-0.1524" y="2" relative="1" as="geometry">
            <mxPoint as="offset" />
          </mxGeometry>
        </mxCell>
        <mxCell id="Vfu6OBMB87fygliHcBvU-1" value="&lt;font style=&quot;font-size: 17px;&quot;&gt;Вафельница&lt;/font&gt;" style="ellipse;whiteSpace=wrap;html=1;labelBackgroundColor=none;" vertex="1" parent="1">
          <mxGeometry x="368" y="50" width="176" height="80" as="geometry" />
        </mxCell>
        <mxCell id="tRxW06e86EIA96pjBW5Z-1" style="edgeStyle=orthogonalEdgeStyle;rounded=0;orthogonalLoop=1;jettySize=auto;html=1;exitX=0.408;exitY=0.011;exitDx=0;exitDy=0;entryX=0.043;entryY=0.278;entryDx=0;entryDy=0;exitPerimeter=0;entryPerimeter=0;labelBackgroundColor=none;fontColor=default;" edge="1" parent="1" source="Vfu6OBMB87fygliHcBvU-2" target="Vfu6OBMB87fygliHcBvU-1">
          <mxGeometry relative="1" as="geometry">
            <Array as="points">
              <mxPoint x="122" y="72" />
              <mxPoint x="130" y="72" />
            </Array>
          </mxGeometry>
        </mxCell>
        <mxCell id="c7Z771N7kakBp39lQ27g-2" value="&lt;font style=&quot;font-size: 14px;&quot;&gt;С2&lt;/font&gt;" style="edgeLabel;html=1;align=center;verticalAlign=middle;resizable=0;points=[];" connectable="0" vertex="1" parent="tRxW06e86EIA96pjBW5Z-1">
          <mxGeometry x="0.0254" y="3" relative="1" as="geometry">
            <mxPoint as="offset" />
          </mxGeometry>
        </mxCell>
        <mxCell id="Vfu6OBMB87fygliHcBvU-2" value="&lt;font style=&quot;font-size: 15px;&quot;&gt;Датчик перегрева&lt;/font&gt;" style="ellipse;whiteSpace=wrap;html=1;labelBackgroundColor=none;" vertex="1" parent="1">
          <mxGeometry x="64.5" y="200" width="140" height="80" as="geometry" />
        </mxCell>
        <mxCell id="PThf3ngzuTzbP_xElSIa-1" value="&lt;font style=&quot;font-size: 15px;&quot;&gt;Электронагреватель&lt;/font&gt;" style="ellipse;whiteSpace=wrap;html=1;labelBackgroundColor=none;" vertex="1" parent="1">
          <mxGeometry x="264" y="200" width="180" height="80" as="geometry" />
        </mxCell>
        <mxCell id="hZor8aOesRWTUhpIG4PY-1" style="edgeStyle=orthogonalEdgeStyle;rounded=0;orthogonalLoop=1;jettySize=auto;html=1;labelBackgroundColor=none;fontColor=default;" edge="1" parent="1" source="PThf3ngzuTzbP_xElSIa-2" target="Vfu6OBMB87fygliHcBvU-1">
          <mxGeometry relative="1" as="geometry">
            <Array as="points">
              <mxPoint x="523" y="170" />
              <mxPoint x="456" y="170" />
            </Array>
          </mxGeometry>
        </mxCell>
        <mxCell id="4-TmSXPJYHdWITlh-lSH-1" value="&lt;font style=&quot;font-size: 14px;&quot;&gt;С1, С2&lt;/font&gt;" style="edgeLabel;html=1;align=center;verticalAlign=middle;resizable=0;points=[];" connectable="0" vertex="1" parent="hZor8aOesRWTUhpIG4PY-1">
          <mxGeometry x="0.0195" relative="1" as="geometry">
            <mxPoint as="offset" />
          </mxGeometry>
        </mxCell>
        <mxCell id="PThf3ngzuTzbP_xElSIa-2" value="&lt;font style=&quot;font-size: 15px;&quot;&gt;Вилка&lt;/font&gt;" style="ellipse;whiteSpace=wrap;html=1;labelBackgroundColor=none;" vertex="1" parent="1">
          <mxGeometry x="458" y="200" width="130" height="80" as="geometry" />
        </mxCell>
        <mxCell id="Da99-eEdUNzAC-9l4UmY-1" style="edgeStyle=orthogonalEdgeStyle;rounded=0;orthogonalLoop=1;jettySize=auto;html=1;entryX=1;entryY=0.5;entryDx=0;entryDy=0;labelBackgroundColor=none;fontColor=default;" edge="1" parent="1" source="oIf5UVNFSvHtEh49Biqo-1" target="Vfu6OBMB87fygliHcBvU-1">
          <mxGeometry relative="1" as="geometry">
            <Array as="points">
              <mxPoint x="703" y="90" />
            </Array>
          </mxGeometry>
        </mxCell>
        <mxCell id="c7Z771N7kakBp39lQ27g-3" value="&lt;font style=&quot;font-size: 14px;&quot;&gt;С3, С4&lt;/font&gt;" style="edgeLabel;html=1;align=center;verticalAlign=middle;resizable=0;points=[];" connectable="0" vertex="1" parent="Da99-eEdUNzAC-9l4UmY-1">
          <mxGeometry x="-0.4349" y="1" relative="1" as="geometry">
            <mxPoint as="offset" />
          </mxGeometry>
        </mxCell>
        <mxCell id="oIf5UVNFSvHtEh49Biqo-1" value="&lt;font style=&quot;font-size: 15px;&quot;&gt;Панель&lt;/font&gt;&lt;div&gt;&lt;font style=&quot;font-size: 15px;&quot;&gt;управления&lt;/font&gt;&lt;/div&gt;" style="ellipse;whiteSpace=wrap;html=1;labelBackgroundColor=none;" vertex="1" parent="1">
          <mxGeometry x="608" y="200" width="190" height="80" as="geometry" />
        </mxCell>
        <mxCell id="oIf5UVNFSvHtEh49Biqo-12" style="edgeStyle=orthogonalEdgeStyle;rounded=0;orthogonalLoop=1;jettySize=auto;html=1;labelBackgroundColor=none;fontColor=default;" edge="1" parent="1" source="oIf5UVNFSvHtEh49Biqo-2" target="oIf5UVNFSvHtEh49Biqo-1">
          <mxGeometry relative="1" as="geometry" />
        </mxCell>
        <mxCell id="c7Z771N7kakBp39lQ27g-4" value="&lt;font style=&quot;font-size: 15px;&quot;&gt;П1, П2&lt;/font&gt;" style="edgeLabel;html=1;align=center;verticalAlign=middle;resizable=0;points=[];" connectable="0" vertex="1" parent="oIf5UVNFSvHtEh49Biqo-12">
          <mxGeometry x="0.6789" y="-4" relative="1" as="geometry">
            <mxPoint as="offset" />
          </mxGeometry>
        </mxCell>
        <mxCell id="oIf5UVNFSvHtEh49Biqo-13" style="edgeStyle=orthogonalEdgeStyle;rounded=0;orthogonalLoop=1;jettySize=auto;html=1;entryX=0.5;entryY=1;entryDx=0;entryDy=0;labelBackgroundColor=none;fontColor=default;" edge="1" parent="1" source="oIf5UVNFSvHtEh49Biqo-2" target="PThf3ngzuTzbP_xElSIa-2">
          <mxGeometry relative="1" as="geometry" />
        </mxCell>
        <mxCell id="c7Z771N7kakBp39lQ27g-5" value="&lt;font style=&quot;font-size: 14px;&quot;&gt;В1, В2&lt;/font&gt;" style="edgeLabel;html=1;align=center;verticalAlign=middle;resizable=0;points=[];" connectable="0" vertex="1" parent="oIf5UVNFSvHtEh49Biqo-13">
          <mxGeometry x="0.6485" relative="1" as="geometry">
            <mxPoint as="offset" />
          </mxGeometry>
        </mxCell>
        <mxCell id="oIf5UVNFSvHtEh49Biqo-2" value="&lt;font style=&quot;font-size: 14px;&quot;&gt;Пользователь&lt;/font&gt;" style="rounded=0;whiteSpace=wrap;html=1;labelBackgroundColor=none;" vertex="1" parent="1">
          <mxGeometry x="478" y="400" width="254" height="60" as="geometry" />
        </mxCell>
        <mxCell id="oIf5UVNFSvHtEh49Biqo-7" style="edgeStyle=orthogonalEdgeStyle;rounded=0;orthogonalLoop=1;jettySize=auto;html=1;exitX=0.5;exitY=1;exitDx=0;exitDy=0;labelBackgroundColor=none;fontColor=default;" edge="1" parent="1">
          <mxGeometry relative="1" as="geometry">
            <mxPoint x="438" y="160" as="sourcePoint" />
            <mxPoint x="438" y="160" as="targetPoint" />
          </mxGeometry>
        </mxCell>
        <mxCell id="bq7hR0FgS6wlqoZna40s-5" style="edgeStyle=orthogonalEdgeStyle;rounded=0;orthogonalLoop=1;jettySize=auto;html=1;labelBackgroundColor=none;fontColor=default;" edge="1" parent="1" source="bq7hR0FgS6wlqoZna40s-4" target="Vfu6OBMB87fygliHcBvU-2">
          <mxGeometry relative="1" as="geometry" />
        </mxCell>
        <mxCell id="yGdQjPnCRxZvYo0Se5Nj-1" value="&lt;span style=&quot;font-size: 14px;&quot;&gt;Д3&lt;/span&gt;" style="edgeLabel;html=1;align=center;verticalAlign=middle;resizable=0;points=[];" connectable="0" vertex="1" parent="bq7hR0FgS6wlqoZna40s-5">
          <mxGeometry x="-0.0244" relative="1" as="geometry">
            <mxPoint as="offset" />
          </mxGeometry>
        </mxCell>
        <mxCell id="bq7hR0FgS6wlqoZna40s-4" value="&lt;font style=&quot;font-size: 14px;&quot;&gt;Температура пластин вафельниц&lt;/font&gt;" style="rounded=0;whiteSpace=wrap;html=1;labelBackgroundColor=none;" vertex="1" parent="1">
          <mxGeometry x="50" y="350" width="169" height="50" as="geometry" />
        </mxCell>
      </root>
    </mxGraphModel>
  </diagram>
  <diagram id="hrDepGgjAXAw9p9yhdfB" name="Канал Управления">
    <mxGraphModel grid="1" page="1" gridSize="10" guides="1" tooltips="1" connect="1" arrows="1" fold="1" pageScale="1" pageWidth="827" pageHeight="1169" math="0" shadow="0" adaptiveColors="auto">
      <root>
        <mxCell id="0" />
        <mxCell id="1" parent="0" />
        <mxCell id="-yaVRX2lsxp-XcFSKAJk-29" value="Вилка" style="rounded=0;whiteSpace=wrap;html=1;strokeWidth=2;labelBackgroundColor=none;" vertex="1" parent="1">
          <mxGeometry x="30" y="30" width="120" height="60" as="geometry" />
        </mxCell>
        <mxCell id="-yaVRX2lsxp-XcFSKAJk-30" value="Вафельница" style="rounded=0;whiteSpace=wrap;html=1;strokeWidth=2;labelBackgroundColor=none;" vertex="1" parent="1">
          <mxGeometry x="190" y="30" width="120" height="60" as="geometry" />
        </mxCell>
        <mxCell id="-yaVRX2lsxp-XcFSKAJk-31" value="Панель управления" style="rounded=0;whiteSpace=wrap;html=1;strokeWidth=2;labelBackgroundColor=none;" vertex="1" parent="1">
          <mxGeometry x="350" y="30" width="120" height="60" as="geometry" />
        </mxCell>
        <mxCell id="-yaVRX2lsxp-XcFSKAJk-32" value="Датчик перегрева" style="rounded=0;whiteSpace=wrap;html=1;strokeWidth=2;labelBackgroundColor=none;" vertex="1" parent="1">
          <mxGeometry x="510" y="30" width="120" height="60" as="geometry" />
        </mxCell>
        <mxCell id="-yaVRX2lsxp-XcFSKAJk-33" value="Электронагреватель" style="rounded=0;whiteSpace=wrap;html=1;strokeWidth=2;labelBackgroundColor=none;" vertex="1" parent="1">
          <mxGeometry x="670" y="30" width="120" height="60" as="geometry" />
        </mxCell>
        <mxCell id="rrz6_y-tvjZpp-3b8Haa-1" value="Отключена от сети" style="rounded=0;whiteSpace=wrap;html=1;labelBackgroundColor=none;" vertex="1" parent="1">
          <mxGeometry x="30" y="110" width="120" height="60" as="geometry" />
        </mxCell>
        <mxCell id="MSWJdDurSQ1XaUoUYs1h-1" style="edgeStyle=orthogonalEdgeStyle;rounded=0;orthogonalLoop=1;jettySize=auto;html=1;labelBackgroundColor=none;fontColor=default;" edge="1" parent="1" source="rrz6_y-tvjZpp-3b8Haa-2" target="yjRtDs9tLxRfpxincapM-17">
          <mxGeometry relative="1" as="geometry" />
        </mxCell>
        <mxCell id="rrz6_y-tvjZpp-3b8Haa-2" value="Выключена" style="rounded=0;whiteSpace=wrap;html=1;labelBackgroundColor=none;" vertex="1" parent="1">
          <mxGeometry x="190" y="110" width="120" height="60" as="geometry" />
        </mxCell>
        <mxCell id="rrz6_y-tvjZpp-3b8Haa-3" value="&lt;font&gt;Мощность не задана&lt;/font&gt;" style="rounded=0;whiteSpace=wrap;html=1;labelBackgroundColor=none;" vertex="1" parent="1">
          <mxGeometry x="350" y="110" width="120" height="60" as="geometry" />
        </mxCell>
        <mxCell id="8IrHcC6sHlPvY5i0vOVl-13" style="edgeStyle=orthogonalEdgeStyle;rounded=0;orthogonalLoop=1;jettySize=auto;html=1;entryX=0.5;entryY=0;entryDx=0;entryDy=0;labelBackgroundColor=none;fontColor=default;" edge="1" parent="1" source="yjRtDs9tLxRfpxincapM-1" target="8IrHcC6sHlPvY5i0vOVl-12">
          <mxGeometry relative="1" as="geometry" />
        </mxCell>
        <mxCell id="yjRtDs9tLxRfpxincapM-1" value="Выключен" style="rounded=0;whiteSpace=wrap;html=1;labelBackgroundColor=none;" vertex="1" parent="1">
          <mxGeometry x="510" y="110" width="120" height="60" as="geometry" />
        </mxCell>
        <mxCell id="8IrHcC6sHlPvY5i0vOVl-21" style="edgeStyle=orthogonalEdgeStyle;rounded=0;orthogonalLoop=1;jettySize=auto;html=1;labelBackgroundColor=none;fontColor=default;" edge="1" parent="1" source="yjRtDs9tLxRfpxincapM-2" target="8IrHcC6sHlPvY5i0vOVl-20">
          <mxGeometry relative="1" as="geometry" />
        </mxCell>
        <mxCell id="yjRtDs9tLxRfpxincapM-2" value="Выключен" style="rounded=0;whiteSpace=wrap;html=1;labelBackgroundColor=none;" vertex="1" parent="1">
          <mxGeometry x="670" y="110" width="120" height="60" as="geometry" />
        </mxCell>
        <mxCell id="MSWJdDurSQ1XaUoUYs1h-3" style="edgeStyle=orthogonalEdgeStyle;rounded=0;orthogonalLoop=1;jettySize=auto;html=1;labelBackgroundColor=none;fontColor=default;" edge="1" parent="1" source="yjRtDs9tLxRfpxincapM-3">
          <mxGeometry relative="1" as="geometry">
            <mxPoint x="250" y="250" as="targetPoint" />
          </mxGeometry>
        </mxCell>
        <mxCell id="yjRtDs9tLxRfpxincapM-3" value="Включена в сеть" style="rounded=0;whiteSpace=wrap;html=1;labelBackgroundColor=none;" vertex="1" parent="1">
          <mxGeometry x="30" y="220" width="120" height="60" as="geometry" />
        </mxCell>
        <mxCell id="pS0l7Aq2QoBkhpY8-8RY-1" style="edgeStyle=orthogonalEdgeStyle;rounded=0;orthogonalLoop=1;jettySize=auto;html=1;labelBackgroundColor=none;fontColor=default;" edge="1" parent="1" source="yjRtDs9tLxRfpxincapM-4">
          <mxGeometry relative="1" as="geometry">
            <mxPoint x="250" y="810" as="targetPoint" />
            <Array as="points">
              <mxPoint x="220" y="810" />
              <mxPoint x="220" y="810" />
            </Array>
          </mxGeometry>
        </mxCell>
        <mxCell id="yjRtDs9tLxRfpxincapM-4" value="Отключена от сети" style="rounded=0;whiteSpace=wrap;html=1;labelBackgroundColor=none;" vertex="1" parent="1">
          <mxGeometry x="30" y="780" width="120" height="60" as="geometry" />
        </mxCell>
        <mxCell id="yjRtDs9tLxRfpxincapM-7" value="" style="endArrow=classic;html=1;rounded=0;labelBackgroundColor=none;fontColor=default;" edge="1" parent="1">
          <mxGeometry width="50" height="50" relative="1" as="geometry">
            <mxPoint x="90" y="170" as="sourcePoint" />
            <mxPoint x="90.21999999999996" y="190" as="targetPoint" />
          </mxGeometry>
        </mxCell>
        <mxCell id="yjRtDs9tLxRfpxincapM-8" value="~" style="edgeLabel;html=1;align=center;verticalAlign=middle;resizable=0;points=[];labelBackgroundColor=none;fontStyle=1;fontSize=13;rounded=0;" connectable="0" vertex="1" parent="yjRtDs9tLxRfpxincapM-7">
          <mxGeometry x="0.4154" relative="1" as="geometry">
            <mxPoint y="9" as="offset" />
          </mxGeometry>
        </mxCell>
        <mxCell id="yjRtDs9tLxRfpxincapM-9" value="" style="endArrow=classic;html=1;rounded=0;labelBackgroundColor=none;fontColor=default;" edge="1" parent="1">
          <mxGeometry width="50" height="50" relative="1" as="geometry">
            <mxPoint x="89.55" y="200" as="sourcePoint" />
            <mxPoint x="89.55" y="220" as="targetPoint" />
          </mxGeometry>
        </mxCell>
        <mxCell id="yjRtDs9tLxRfpxincapM-10" value="~" style="edgeLabel;html=1;align=center;verticalAlign=middle;resizable=0;points=[];labelBackgroundColor=none;fontStyle=1;fontSize=13;rounded=0;" connectable="0" vertex="1" parent="yjRtDs9tLxRfpxincapM-9">
          <mxGeometry x="-0.6333" relative="1" as="geometry">
            <mxPoint y="-6" as="offset" />
          </mxGeometry>
        </mxCell>
        <mxCell id="yjRtDs9tLxRfpxincapM-13" style="edgeStyle=orthogonalEdgeStyle;rounded=0;orthogonalLoop=1;jettySize=auto;html=1;exitX=0.5;exitY=1;exitDx=0;exitDy=0;labelBackgroundColor=none;fontColor=default;" edge="1" parent="1">
          <mxGeometry relative="1" as="geometry">
            <mxPoint x="90" y="640" as="targetPoint" />
            <mxPoint x="89.33" y="280" as="sourcePoint" />
          </mxGeometry>
        </mxCell>
        <mxCell id="yjRtDs9tLxRfpxincapM-14" value="~" style="edgeLabel;html=1;align=center;verticalAlign=middle;resizable=0;points=[];fontStyle=1;fontSize=14;labelBackgroundColor=none;rounded=0;" connectable="0" vertex="1" parent="yjRtDs9tLxRfpxincapM-13">
          <mxGeometry x="0.908" relative="1" as="geometry">
            <mxPoint x="-1" y="18" as="offset" />
          </mxGeometry>
        </mxCell>
        <mxCell id="yjRtDs9tLxRfpxincapM-15" value="" style="endArrow=classic;html=1;rounded=0;entryX=0.5;entryY=0;entryDx=0;entryDy=0;labelBackgroundColor=none;fontColor=default;" edge="1" parent="1" target="yjRtDs9tLxRfpxincapM-4">
          <mxGeometry width="50" height="50" relative="1" as="geometry">
            <mxPoint x="90" y="660" as="sourcePoint" />
            <mxPoint x="90" y="790" as="targetPoint" />
          </mxGeometry>
        </mxCell>
        <mxCell id="yjRtDs9tLxRfpxincapM-16" value="~" style="edgeLabel;html=1;align=center;verticalAlign=middle;resizable=0;points=[];fontSize=14;fontStyle=1;labelBackgroundColor=none;rounded=0;" connectable="0" vertex="1" parent="yjRtDs9tLxRfpxincapM-15">
          <mxGeometry x="-0.7252" y="-1" relative="1" as="geometry">
            <mxPoint x="1" y="-17" as="offset" />
          </mxGeometry>
        </mxCell>
        <mxCell id="87B2_zmxps0AtsFEGdub-1" style="edgeStyle=orthogonalEdgeStyle;rounded=0;orthogonalLoop=1;jettySize=auto;html=1;entryX=0.5;entryY=0;entryDx=0;entryDy=0;labelBackgroundColor=none;fontColor=default;" edge="1" parent="1" source="yjRtDs9tLxRfpxincapM-17" target="MSWJdDurSQ1XaUoUYs1h-4">
          <mxGeometry relative="1" as="geometry" />
        </mxCell>
        <mxCell id="8IrHcC6sHlPvY5i0vOVl-14" style="edgeStyle=orthogonalEdgeStyle;rounded=0;orthogonalLoop=1;jettySize=auto;html=1;exitX=1;exitY=0.25;exitDx=0;exitDy=0;labelBackgroundColor=none;fontColor=default;" edge="1" parent="1" source="yjRtDs9tLxRfpxincapM-17">
          <mxGeometry relative="1" as="geometry">
            <mxPoint x="570" y="285" as="targetPoint" />
            <Array as="points">
              <mxPoint x="560" y="285" />
              <mxPoint x="560" y="285" />
            </Array>
          </mxGeometry>
        </mxCell>
        <mxCell id="yjRtDs9tLxRfpxincapM-17" value="Ожидает запуска" style="rounded=0;whiteSpace=wrap;html=1;labelBackgroundColor=none;" vertex="1" parent="1">
          <mxGeometry x="190" y="270" width="120" height="60" as="geometry" />
        </mxCell>
        <mxCell id="XKKiI4C-xCHzvtfOXcn0-1" style="edgeStyle=orthogonalEdgeStyle;rounded=0;orthogonalLoop=1;jettySize=auto;html=1;entryX=0.5;entryY=0;entryDx=0;entryDy=0;labelBackgroundColor=none;fontColor=default;" edge="1" parent="1" source="pS0l7Aq2QoBkhpY8-8RY-14" target="87B2_zmxps0AtsFEGdub-2">
          <mxGeometry relative="1" as="geometry" />
        </mxCell>
        <mxCell id="pS0l7Aq2QoBkhpY8-8RY-12" style="edgeStyle=orthogonalEdgeStyle;rounded=0;orthogonalLoop=1;jettySize=auto;html=1;" edge="1" parent="1" source="MSWJdDurSQ1XaUoUYs1h-4">
          <mxGeometry relative="1" as="geometry">
            <mxPoint x="730" y="500" as="targetPoint" />
          </mxGeometry>
        </mxCell>
        <mxCell id="MSWJdDurSQ1XaUoUYs1h-4" value="&lt;span style=&quot;font-size: 14px;&quot;&gt;Приготовление&lt;/span&gt;" style="rounded=0;whiteSpace=wrap;html=1;labelBackgroundColor=none;" vertex="1" parent="1">
          <mxGeometry x="190" y="470" width="120" height="60" as="geometry" />
        </mxCell>
        <mxCell id="8IrHcC6sHlPvY5i0vOVl-30" style="edgeStyle=orthogonalEdgeStyle;rounded=0;orthogonalLoop=1;jettySize=auto;html=1;exitX=1.002;exitY=0.192;exitDx=0;exitDy=0;exitPerimeter=0;labelBackgroundColor=none;fontColor=default;" edge="1" parent="1" source="87B2_zmxps0AtsFEGdub-2">
          <mxGeometry relative="1" as="geometry">
            <mxPoint x="570" y="862" as="targetPoint" />
          </mxGeometry>
        </mxCell>
        <mxCell id="87B2_zmxps0AtsFEGdub-2" value="Выключена" style="rounded=0;whiteSpace=wrap;html=1;labelBackgroundColor=none;" vertex="1" parent="1">
          <mxGeometry x="190" y="850" width="120" height="60" as="geometry" />
        </mxCell>
        <mxCell id="pS0l7Aq2QoBkhpY8-8RY-5" style="edgeStyle=orthogonalEdgeStyle;rounded=0;orthogonalLoop=1;jettySize=auto;html=1;" edge="1" parent="1" source="8IrHcC6sHlPvY5i0vOVl-1">
          <mxGeometry relative="1" as="geometry">
            <mxPoint x="250" y="440" as="targetPoint" />
          </mxGeometry>
        </mxCell>
        <mxCell id="8IrHcC6sHlPvY5i0vOVl-1" value="&lt;font&gt;Мощность задана&lt;/font&gt;" style="rounded=0;whiteSpace=wrap;html=1;labelBackgroundColor=none;" vertex="1" parent="1">
          <mxGeometry x="354" y="410" width="120" height="60" as="geometry" />
        </mxCell>
        <mxCell id="8IrHcC6sHlPvY5i0vOVl-2" value="" style="endArrow=classic;html=1;rounded=0;exitX=0.5;exitY=1;exitDx=0;exitDy=0;labelBackgroundColor=none;fontColor=default;" edge="1" parent="1" source="rrz6_y-tvjZpp-3b8Haa-3">
          <mxGeometry width="50" height="50" relative="1" as="geometry">
            <mxPoint x="390.45" y="230" as="sourcePoint" />
            <mxPoint x="410" y="250" as="targetPoint" />
          </mxGeometry>
        </mxCell>
        <mxCell id="8IrHcC6sHlPvY5i0vOVl-3" value="~" style="edgeLabel;html=1;align=center;verticalAlign=middle;resizable=0;points=[];labelBackgroundColor=none;fontStyle=1;fontSize=13;rounded=0;" connectable="0" vertex="1" parent="8IrHcC6sHlPvY5i0vOVl-2">
          <mxGeometry x="0.4154" relative="1" as="geometry">
            <mxPoint y="22" as="offset" />
          </mxGeometry>
        </mxCell>
        <mxCell id="8IrHcC6sHlPvY5i0vOVl-4" value="" style="endArrow=classic;html=1;rounded=0;entryX=0.463;entryY=-0.005;entryDx=0;entryDy=0;entryPerimeter=0;labelBackgroundColor=none;fontColor=default;" edge="1" parent="1" target="8IrHcC6sHlPvY5i0vOVl-1">
          <mxGeometry width="50" height="50" relative="1" as="geometry">
            <mxPoint x="410" y="260" as="sourcePoint" />
            <mxPoint x="390" y="280" as="targetPoint" />
          </mxGeometry>
        </mxCell>
        <mxCell id="8IrHcC6sHlPvY5i0vOVl-5" value="~" style="edgeLabel;html=1;align=center;verticalAlign=middle;resizable=0;points=[];labelBackgroundColor=none;fontStyle=1;fontSize=13;rounded=0;" connectable="0" vertex="1" parent="8IrHcC6sHlPvY5i0vOVl-4">
          <mxGeometry x="-0.6333" relative="1" as="geometry">
            <mxPoint y="-27" as="offset" />
          </mxGeometry>
        </mxCell>
        <mxCell id="pS0l7Aq2QoBkhpY8-8RY-16" style="edgeStyle=orthogonalEdgeStyle;rounded=0;orthogonalLoop=1;jettySize=auto;html=1;" edge="1" parent="1" source="8IrHcC6sHlPvY5i0vOVl-8">
          <mxGeometry relative="1" as="geometry">
            <mxPoint x="250" y="630" as="targetPoint" />
          </mxGeometry>
        </mxCell>
        <mxCell id="8IrHcC6sHlPvY5i0vOVl-8" value="&lt;font&gt;Мощность не задана&lt;/font&gt;" style="rounded=0;whiteSpace=wrap;html=1;labelBackgroundColor=none;" vertex="1" parent="1">
          <mxGeometry x="354" y="600" width="120" height="60" as="geometry" />
        </mxCell>
        <mxCell id="8IrHcC6sHlPvY5i0vOVl-18" style="edgeStyle=orthogonalEdgeStyle;rounded=0;orthogonalLoop=1;jettySize=auto;html=1;labelBackgroundColor=none;fontColor=default;" edge="1" parent="1" source="8IrHcC6sHlPvY5i0vOVl-12" target="8IrHcC6sHlPvY5i0vOVl-16">
          <mxGeometry relative="1" as="geometry" />
        </mxCell>
        <mxCell id="8IrHcC6sHlPvY5i0vOVl-12" value="Фиксирование допустимой температуры" style="rounded=0;whiteSpace=wrap;html=1;labelBackgroundColor=none;" vertex="1" parent="1">
          <mxGeometry x="510" y="390" width="120" height="60" as="geometry" />
        </mxCell>
        <mxCell id="8IrHcC6sHlPvY5i0vOVl-16" value="&lt;font&gt;Выключен&lt;/font&gt;" style="rounded=0;whiteSpace=wrap;html=1;labelBackgroundColor=none;" vertex="1" parent="1">
          <mxGeometry x="510" y="920" width="120" height="60" as="geometry" />
        </mxCell>
        <mxCell id="8IrHcC6sHlPvY5i0vOVl-24" style="edgeStyle=orthogonalEdgeStyle;rounded=0;orthogonalLoop=1;jettySize=auto;html=1;entryX=0.5;entryY=0;entryDx=0;entryDy=0;labelBackgroundColor=none;fontColor=default;" edge="1" parent="1" source="8IrHcC6sHlPvY5i0vOVl-20" target="8IrHcC6sHlPvY5i0vOVl-23">
          <mxGeometry relative="1" as="geometry" />
        </mxCell>
        <mxCell id="8IrHcC6sHlPvY5i0vOVl-20" value="Включен" style="rounded=0;whiteSpace=wrap;html=1;labelBackgroundColor=none;" vertex="1" parent="1">
          <mxGeometry x="670" y="540" width="120" height="60" as="geometry" />
        </mxCell>
        <mxCell id="8IrHcC6sHlPvY5i0vOVl-23" value="Выключен" style="rounded=0;whiteSpace=wrap;html=1;labelBackgroundColor=none;" vertex="1" parent="1">
          <mxGeometry x="670" y="770" width="120" height="60" as="geometry" />
        </mxCell>
        <mxCell id="pS0l7Aq2QoBkhpY8-8RY-6" value="" style="endArrow=classic;html=1;rounded=0;exitX=0.467;exitY=1.017;exitDx=0;exitDy=0;labelBackgroundColor=none;fontColor=default;exitPerimeter=0;" edge="1" parent="1" source="8IrHcC6sHlPvY5i0vOVl-1">
          <mxGeometry width="50" height="50" relative="1" as="geometry">
            <mxPoint x="410" y="520" as="sourcePoint" />
            <mxPoint x="410" y="520" as="targetPoint" />
          </mxGeometry>
        </mxCell>
        <mxCell id="pS0l7Aq2QoBkhpY8-8RY-7" value="~" style="edgeLabel;html=1;align=center;verticalAlign=middle;resizable=0;points=[];labelBackgroundColor=none;fontStyle=1;fontSize=13;rounded=0;" connectable="0" vertex="1" parent="pS0l7Aq2QoBkhpY8-8RY-6">
          <mxGeometry x="0.4154" relative="1" as="geometry">
            <mxPoint y="24" as="offset" />
          </mxGeometry>
        </mxCell>
        <mxCell id="pS0l7Aq2QoBkhpY8-8RY-8" value="" style="endArrow=classic;html=1;rounded=0;labelBackgroundColor=none;fontColor=default;" edge="1" parent="1">
          <mxGeometry width="50" height="50" relative="1" as="geometry">
            <mxPoint x="410" y="530" as="sourcePoint" />
            <mxPoint x="410" y="600" as="targetPoint" />
          </mxGeometry>
        </mxCell>
        <mxCell id="pS0l7Aq2QoBkhpY8-8RY-9" value="~" style="edgeLabel;html=1;align=center;verticalAlign=middle;resizable=0;points=[];labelBackgroundColor=none;fontStyle=1;fontSize=13;rounded=0;" connectable="0" vertex="1" parent="pS0l7Aq2QoBkhpY8-8RY-8">
          <mxGeometry x="-0.6333" relative="1" as="geometry">
            <mxPoint y="-25" as="offset" />
          </mxGeometry>
        </mxCell>
        <mxCell id="pS0l7Aq2QoBkhpY8-8RY-15" value="" style="edgeStyle=orthogonalEdgeStyle;rounded=0;orthogonalLoop=1;jettySize=auto;html=1;entryX=0.5;entryY=0;entryDx=0;entryDy=0;labelBackgroundColor=none;fontColor=default;" edge="1" parent="1" source="MSWJdDurSQ1XaUoUYs1h-4" target="pS0l7Aq2QoBkhpY8-8RY-14">
          <mxGeometry relative="1" as="geometry">
            <mxPoint x="250" y="530" as="sourcePoint" />
            <mxPoint x="250" y="850" as="targetPoint" />
          </mxGeometry>
        </mxCell>
        <mxCell id="pS0l7Aq2QoBkhpY8-8RY-18" style="edgeStyle=orthogonalEdgeStyle;rounded=0;orthogonalLoop=1;jettySize=auto;html=1;" edge="1" parent="1" source="pS0l7Aq2QoBkhpY8-8RY-14">
          <mxGeometry relative="1" as="geometry">
            <mxPoint x="730" y="710" as="targetPoint" />
            <Array as="points">
              <mxPoint x="520" y="710" />
              <mxPoint x="520" y="711" />
              <mxPoint x="730" y="711" />
            </Array>
          </mxGeometry>
        </mxCell>
        <mxCell id="pS0l7Aq2QoBkhpY8-8RY-14" value="Ожидает запуска" style="rounded=0;whiteSpace=wrap;html=1;labelBackgroundColor=none;" vertex="1" parent="1">
          <mxGeometry x="190" y="680" width="120" height="60" as="geometry" />
        </mxCell>
      </root>
    </mxGraphModel>
  </diagram>
  <diagram id="vTdBJvGQULVZWWpai9k1" name="ДПДД">
    <mxGraphModel grid="1" page="1" gridSize="10" guides="1" tooltips="1" connect="1" arrows="1" fold="1" pageScale="1" pageWidth="827" pageHeight="1169" math="0" shadow="0">
      <root>
        <mxCell id="0" />
        <mxCell id="1" parent="0" />
        <mxCell id="KzurcuNZsRSPmzHi2wHg-1" value="&lt;font style=&quot;font-size: 22px;&quot; face=&quot;Times New Roman&quot;&gt;&lt;b style=&quot;&quot;&gt;1. Выключена&lt;/b&gt;&lt;/font&gt;" style="text;html=1;align=center;verticalAlign=middle;whiteSpace=wrap;rounded=0;labelBackgroundColor=none;" vertex="1" parent="1">
          <mxGeometry x="-620" y="130" width="170" height="30" as="geometry" />
        </mxCell>
        <mxCell id="KzurcuNZsRSPmzHi2wHg-2" value="" style="verticalLabelPosition=bottom;verticalAlign=top;html=1;shape=mxgraph.basic.frame;dx=10;whiteSpace=wrap;labelBackgroundColor=none;" vertex="1" parent="1">
          <mxGeometry x="-700" y="280" width="100" height="60" as="geometry" />
        </mxCell>
        <mxCell id="KzurcuNZsRSPmzHi2wHg-3" value="&lt;font style=&quot;font-size: 14px;&quot; face=&quot;Times New Roman&quot;&gt;Вафельница&lt;/font&gt;" style="text;html=1;align=center;verticalAlign=middle;whiteSpace=wrap;rounded=0;labelBackgroundColor=none;" vertex="1" parent="1">
          <mxGeometry x="-680" y="295" width="60" height="30" as="geometry" />
        </mxCell>
        <mxCell id="KzurcuNZsRSPmzHi2wHg-4" value="С1.1 Получить состояние" style="ellipse;whiteSpace=wrap;html=1;labelBackgroundColor=none;" vertex="1" parent="1">
          <mxGeometry x="-530" y="270" width="120" height="80" as="geometry" />
        </mxCell>
        <mxCell id="KzurcuNZsRSPmzHi2wHg-5" style="edgeStyle=orthogonalEdgeStyle;rounded=0;orthogonalLoop=1;jettySize=auto;html=1;exitX=0.5;exitY=1;exitDx=0;exitDy=0;entryX=0.5;entryY=0;entryDx=0;entryDy=0;labelBackgroundColor=none;fontColor=default;" edge="1" parent="1" source="KzurcuNZsRSPmzHi2wHg-7" target="KzurcuNZsRSPmzHi2wHg-23">
          <mxGeometry relative="1" as="geometry">
            <mxPoint x="-290" y="460" as="targetPoint" />
          </mxGeometry>
        </mxCell>
        <mxCell id="KzurcuNZsRSPmzHi2wHg-6" value="&lt;font face=&quot;Times New Roman&quot; style=&quot;font-size: 12px;&quot;&gt;Состояние С&lt;/font&gt;&lt;div&gt;&lt;font face=&quot;Times New Roman&quot; style=&quot;font-size: 12px;&quot;&gt;Пред. Сост.&lt;/font&gt;&lt;/div&gt;" style="edgeLabel;html=1;align=center;verticalAlign=middle;resizable=0;points=[];labelBackgroundColor=none;" connectable="0" vertex="1" parent="KzurcuNZsRSPmzHi2wHg-5">
          <mxGeometry x="-0.3105" y="-2" relative="1" as="geometry">
            <mxPoint x="2" y="12" as="offset" />
          </mxGeometry>
        </mxCell>
        <mxCell id="KzurcuNZsRSPmzHi2wHg-7" value="С1.2 Сохранить Предудщее состояние&lt;div&gt;Пред. Сост. = С&lt;/div&gt;" style="ellipse;whiteSpace=wrap;html=1;labelBackgroundColor=none;" vertex="1" parent="1">
          <mxGeometry x="-350" y="270" width="120" height="80" as="geometry" />
        </mxCell>
        <mxCell id="KzurcuNZsRSPmzHi2wHg-8" value="С1.0 Принять событие" style="ellipse;whiteSpace=wrap;html=1;labelBackgroundColor=none;" vertex="1" parent="1">
          <mxGeometry x="-350" y="140" width="120" height="80" as="geometry" />
        </mxCell>
        <mxCell id="KzurcuNZsRSPmzHi2wHg-9" value="" style="endArrow=classic;html=1;rounded=0;entryX=0.5;entryY=0;entryDx=0;entryDy=0;labelBackgroundColor=none;fontColor=default;" edge="1" parent="1" target="KzurcuNZsRSPmzHi2wHg-8">
          <mxGeometry width="50" height="50" relative="1" as="geometry">
            <mxPoint x="-290" y="70" as="sourcePoint" />
            <mxPoint x="-310" y="20" as="targetPoint" />
          </mxGeometry>
        </mxCell>
        <mxCell id="KzurcuNZsRSPmzHi2wHg-10" value="&lt;font style=&quot;font-size: 14px;&quot; face=&quot;Times New Roman&quot;&gt;С2&lt;/font&gt;" style="edgeLabel;html=1;align=center;verticalAlign=middle;resizable=0;points=[];labelBackgroundColor=none;" connectable="0" vertex="1" parent="KzurcuNZsRSPmzHi2wHg-9">
          <mxGeometry x="-0.5762" y="2" relative="1" as="geometry">
            <mxPoint x="8" y="15" as="offset" />
          </mxGeometry>
        </mxCell>
        <mxCell id="KzurcuNZsRSPmzHi2wHg-11" value="" style="endArrow=classic;html=1;rounded=0;exitX=1;exitY=0.5;exitDx=0;exitDy=0;entryX=1;entryY=0;entryDx=0;entryDy=0;labelBackgroundColor=none;fontColor=default;" edge="1" parent="1" source="KzurcuNZsRSPmzHi2wHg-8" target="KzurcuNZsRSPmzHi2wHg-27">
          <mxGeometry width="50" height="50" relative="1" as="geometry">
            <mxPoint x="-420" y="310" as="sourcePoint" />
            <mxPoint x="-164" y="700" as="targetPoint" />
            <Array as="points">
              <mxPoint x="-164" y="180" />
              <mxPoint x="-164" y="682" />
            </Array>
          </mxGeometry>
        </mxCell>
        <mxCell id="KzurcuNZsRSPmzHi2wHg-12" value="&lt;font style=&quot;font-size: 14px;&quot; face=&quot;Times New Roman&quot;&gt;Данные события&lt;/font&gt;" style="edgeLabel;html=1;align=center;verticalAlign=middle;resizable=0;points=[];rotation=0;labelBackgroundColor=none;" connectable="0" vertex="1" parent="KzurcuNZsRSPmzHi2wHg-11">
          <mxGeometry x="-0.5067" y="2" relative="1" as="geometry">
            <mxPoint x="2" y="155" as="offset" />
          </mxGeometry>
        </mxCell>
        <mxCell id="KzurcuNZsRSPmzHi2wHg-13" value="" style="endArrow=classic;html=1;rounded=0;exitX=1;exitY=0.5;exitDx=0;exitDy=0;exitPerimeter=0;labelBackgroundColor=none;fontColor=default;" edge="1" parent="1" source="KzurcuNZsRSPmzHi2wHg-2" target="KzurcuNZsRSPmzHi2wHg-4">
          <mxGeometry width="50" height="50" relative="1" as="geometry">
            <mxPoint x="-550" y="460" as="sourcePoint" />
            <mxPoint x="-500" y="410" as="targetPoint" />
            <Array as="points">
              <mxPoint x="-570" y="310" />
            </Array>
          </mxGeometry>
        </mxCell>
        <mxCell id="KzurcuNZsRSPmzHi2wHg-14" value="&lt;font style=&quot;font-size: 12px;&quot; face=&quot;Times New Roman&quot;&gt;Состояние С&lt;/font&gt;" style="edgeLabel;html=1;align=center;verticalAlign=middle;resizable=0;points=[];labelBackgroundColor=none;" connectable="0" vertex="1" parent="KzurcuNZsRSPmzHi2wHg-13">
          <mxGeometry x="-0.2524" relative="1" as="geometry">
            <mxPoint x="14" y="-40" as="offset" />
          </mxGeometry>
        </mxCell>
        <mxCell id="KzurcuNZsRSPmzHi2wHg-15" value="" style="endArrow=classic;html=1;rounded=0;exitX=1;exitY=0.5;exitDx=0;exitDy=0;entryX=0;entryY=0.5;entryDx=0;entryDy=0;labelBackgroundColor=none;fontColor=default;" edge="1" parent="1" source="KzurcuNZsRSPmzHi2wHg-4" target="KzurcuNZsRSPmzHi2wHg-7">
          <mxGeometry width="50" height="50" relative="1" as="geometry">
            <mxPoint x="-400" y="370" as="sourcePoint" />
            <mxPoint x="-330" y="370" as="targetPoint" />
            <Array as="points" />
          </mxGeometry>
        </mxCell>
        <mxCell id="KzurcuNZsRSPmzHi2wHg-16" value="&lt;font style=&quot;font-size: 12px;&quot; face=&quot;Times New Roman&quot;&gt;Состояние С&lt;/font&gt;" style="edgeLabel;html=1;align=center;verticalAlign=middle;resizable=0;points=[];labelBackgroundColor=none;" connectable="0" vertex="1" parent="KzurcuNZsRSPmzHi2wHg-15">
          <mxGeometry x="-0.2524" relative="1" as="geometry">
            <mxPoint x="14" y="-40" as="offset" />
          </mxGeometry>
        </mxCell>
        <mxCell id="KzurcuNZsRSPmzHi2wHg-17" value="" style="endArrow=classic;html=1;rounded=0;exitX=0;exitY=0.5;exitDx=0;exitDy=0;entryX=0.5;entryY=1;entryDx=0;entryDy=0;entryPerimeter=0;labelBackgroundColor=none;fontColor=default;" edge="1" parent="1" source="KzurcuNZsRSPmzHi2wHg-26" target="KzurcuNZsRSPmzHi2wHg-2">
          <mxGeometry width="50" height="50" relative="1" as="geometry">
            <mxPoint x="-480" y="579.1700000000001" as="sourcePoint" />
            <mxPoint x="-420" y="579.1700000000001" as="targetPoint" />
            <Array as="points">
              <mxPoint x="-650" y="590" />
            </Array>
          </mxGeometry>
        </mxCell>
        <mxCell id="KzurcuNZsRSPmzHi2wHg-18" value="&lt;font style=&quot;font-size: 12px;&quot; face=&quot;Times New Roman&quot;&gt;Состояние С&lt;/font&gt;" style="edgeLabel;html=1;align=center;verticalAlign=middle;resizable=0;points=[];labelBackgroundColor=none;" connectable="0" vertex="1" parent="KzurcuNZsRSPmzHi2wHg-17">
          <mxGeometry x="-0.2524" relative="1" as="geometry">
            <mxPoint x="90" y="-20" as="offset" />
          </mxGeometry>
        </mxCell>
        <mxCell id="KzurcuNZsRSPmzHi2wHg-19" style="edgeStyle=orthogonalEdgeStyle;rounded=0;orthogonalLoop=1;jettySize=auto;html=1;exitX=0.5;exitY=1;exitDx=0;exitDy=0;entryX=0.5;entryY=0;entryDx=0;entryDy=0;labelBackgroundColor=none;fontColor=default;" edge="1" parent="1" source="KzurcuNZsRSPmzHi2wHg-23" target="KzurcuNZsRSPmzHi2wHg-26">
          <mxGeometry relative="1" as="geometry" />
        </mxCell>
        <mxCell id="KzurcuNZsRSPmzHi2wHg-20" value="&lt;span style=&quot;color: rgba(0, 0, 0, 0); font-family: monospace; font-size: 0px; text-align: start; background-color: rgb(27, 29, 30);&quot;&gt;%3CmxGraphModel%3E%3Croot%3E%3CmxCell%20id%3D%220%22%2F%3E%3CmxCell%20id%3D%221%22%20parent%3D%220%22%2F%3E%3CmxCell%20id%3D%222%22%20value%3D%22%26lt%3Bfont%20face%3D%26quot%3BTimes%20New%20Roman%26quot%3B%20style%3D%26quot%3Bfont-size%3A%2014px%3B%26quot%3B%26gt%3B%D0%A1%D0%BE%D1%81%D1%82%D0%BE%D1%8F%D0%BD%D0%B8%D0%B5%20%D0%A1%26lt%3B%2Ffont%26gt%3B%26lt%3Bdiv%26gt%3B%26lt%3Bfont%20face%3D%26quot%3BTimes%20New%20Roman%26quot%3B%20style%3D%26quot%3Bfont-size%3A%2014px%3B%26quot%3B%26gt%3B%D0%9F%D1%80%D0%B5%D0%B4.%20%D0%A1%D0%BE%D1%81%D1%82.%26lt%3B%2Ffont%26gt%3B%26lt%3B%2Fdiv%26gt%3B%22%20style%3D%22edgeLabel%3Bhtml%3D1%3Balign%3Dcenter%3BverticalAlign%3Dmiddle%3Bresizable%3D0%3Bpoints%3D%5B%5D%3B%22%20vertex%3D%221%22%20connectable%3D%220%22%20parent%3D%221%22%3E%3CmxGeometry%20x%3D%222110%22%20y%3D%22435.20000000000005%22%20as%3D%22geometry%22%2F%3E%3C%2FmxCell%3E%3C%2Froot%3E%3C%2FmxGraphModel%3&lt;/span&gt;" style="edgeLabel;html=1;align=center;verticalAlign=middle;resizable=0;points=[];labelBackgroundColor=none;" connectable="0" vertex="1" parent="KzurcuNZsRSPmzHi2wHg-19">
          <mxGeometry x="-0.2631" y="-1" relative="1" as="geometry">
            <mxPoint as="offset" />
          </mxGeometry>
        </mxCell>
        <mxCell id="KzurcuNZsRSPmzHi2wHg-21" value="&lt;span style=&quot;color: rgba(0, 0, 0, 0); font-family: monospace; font-size: 0px; text-align: start; background-color: rgb(27, 29, 30);&quot;&gt;%3CmxGraphModel%3E%3Croot%3E%3CmxCell%20id%3D%220%22%2F%3E%3CmxCell%20id%3D%221%22%20parent%3D%220%22%2F%3E%3CmxCell%20id%3D%222%22%20value%3D%22%26lt%3Bfont%20face%3D%26quot%3BTimes%20New%20Roman%26quot%3B%20style%3D%26quot%3Bfont-size%3A%2014px%3B%26quot%3B%26gt%3B%D0%A1%D0%BE%D1%81%D1%82%D0%BE%D1%8F%D0%BD%D0%B8%D0%B5%20%D0%A1%26lt%3B%2Ffont%26gt%3B%26lt%3Bdiv%26gt%3B%26lt%3Bfont%20face%3D%26quot%3BTimes%20New%20Roman%26quot%3B%20style%3D%26quot%3Bfont-size%3A%2014px%3B%26quot%3B%26gt%3B%D0%9F%D1%80%D0%B5%D0%B4.%20%D0%A1%D0%BE%D1%81%D1%82.%26lt%3B%2Ffont%26gt%3B%26lt%3B%2Fdiv%26gt%3B%22%20style%3D%22edgeLabel%3Bhtml%3D1%3Balign%3Dcenter%3BverticalAlign%3Dmiddle%3Bresizable%3D0%3Bpoints%3D%5B%5D%3B%22%20vertex%3D%221%22%20connectable%3D%220%22%20parent%3D%221%22%3E%3CmxGeometry%20x%3D%222110%22%20y%3D%22435.20000000000005%22%20as%3D%22geometry%22%2F%3E%3C%2FmxCell%3E%3C%2Froot%3E%3C%2FmxGraphModel%3E&lt;/span&gt;" style="edgeLabel;html=1;align=center;verticalAlign=middle;resizable=0;points=[];labelBackgroundColor=none;" connectable="0" vertex="1" parent="KzurcuNZsRSPmzHi2wHg-19">
          <mxGeometry x="-0.2057" relative="1" as="geometry">
            <mxPoint as="offset" />
          </mxGeometry>
        </mxCell>
        <mxCell id="KzurcuNZsRSPmzHi2wHg-22" value="&lt;font style=&quot;font-size: 12px;&quot; face=&quot;Times New Roman&quot;&gt;Состояние С&lt;/font&gt;&lt;div&gt;&lt;font style=&quot;font-size: 12px;&quot; face=&quot;Times New Roman&quot;&gt;Пред. Сост.&lt;/font&gt;&lt;/div&gt;" style="edgeLabel;html=1;align=center;verticalAlign=middle;resizable=0;points=[];labelBackgroundColor=none;" connectable="0" vertex="1" parent="KzurcuNZsRSPmzHi2wHg-19">
          <mxGeometry x="-0.3204" relative="1" as="geometry">
            <mxPoint y="3" as="offset" />
          </mxGeometry>
        </mxCell>
        <mxCell id="KzurcuNZsRSPmzHi2wHg-23" value="С1.3 Изменить состояние&lt;div&gt;С:=Выключена(1)&lt;/div&gt;" style="ellipse;whiteSpace=wrap;html=1;labelBackgroundColor=none;" vertex="1" parent="1">
          <mxGeometry x="-350" y="420" width="120" height="80" as="geometry" />
        </mxCell>
        <mxCell id="KzurcuNZsRSPmzHi2wHg-24" style="edgeStyle=orthogonalEdgeStyle;rounded=0;orthogonalLoop=1;jettySize=auto;html=1;exitX=0.5;exitY=1;exitDx=0;exitDy=0;entryX=0.5;entryY=0;entryDx=0;entryDy=0;labelBackgroundColor=none;fontColor=default;" edge="1" parent="1" source="KzurcuNZsRSPmzHi2wHg-26" target="KzurcuNZsRSPmzHi2wHg-27">
          <mxGeometry relative="1" as="geometry" />
        </mxCell>
        <mxCell id="KzurcuNZsRSPmzHi2wHg-25" value="&lt;span style=&quot;font-family: &amp;quot;Times New Roman&amp;quot;;&quot;&gt;&lt;font style=&quot;font-size: 12px;&quot;&gt;Пред. Сост.&lt;/font&gt;&lt;/span&gt;" style="edgeLabel;html=1;align=center;verticalAlign=middle;resizable=0;points=[];labelBackgroundColor=none;" connectable="0" vertex="1" parent="KzurcuNZsRSPmzHi2wHg-24">
          <mxGeometry x="-0.0964" y="-1" relative="1" as="geometry">
            <mxPoint x="1" as="offset" />
          </mxGeometry>
        </mxCell>
        <mxCell id="KzurcuNZsRSPmzHi2wHg-26" value="С1.4 Записать состояние" style="ellipse;whiteSpace=wrap;html=1;labelBackgroundColor=none;" vertex="1" parent="1">
          <mxGeometry x="-350" y="550" width="120" height="80" as="geometry" />
        </mxCell>
        <mxCell id="KzurcuNZsRSPmzHi2wHg-27" value="С1.5 Проверить предыдущее состояние" style="ellipse;whiteSpace=wrap;html=1;labelBackgroundColor=none;" vertex="1" parent="1">
          <mxGeometry x="-350" y="670" width="120" height="80" as="geometry" />
        </mxCell>
        <mxCell id="KzurcuNZsRSPmzHi2wHg-28" style="edgeStyle=orthogonalEdgeStyle;rounded=0;orthogonalLoop=1;jettySize=auto;html=1;exitX=1;exitY=0.5;exitDx=0;exitDy=0;labelBackgroundColor=none;fontColor=default;" edge="1" parent="1" source="KzurcuNZsRSPmzHi2wHg-29">
          <mxGeometry relative="1" as="geometry">
            <mxPoint x="210" y="750" as="targetPoint" />
          </mxGeometry>
        </mxCell>
        <mxCell id="KzurcuNZsRSPmzHi2wHg-29" value="С1.6 Породить события Д2, Э2" style="ellipse;whiteSpace=wrap;html=1;labelBackgroundColor=none;" vertex="1" parent="1">
          <mxGeometry x="20" y="710" width="120" height="80" as="geometry" />
        </mxCell>
        <mxCell id="KzurcuNZsRSPmzHi2wHg-30" value="" style="endArrow=classic;html=1;rounded=0;exitX=1;exitY=0.5;exitDx=0;exitDy=0;entryX=0;entryY=0.5;entryDx=0;entryDy=0;dashed=1;labelBackgroundColor=none;fontColor=default;" edge="1" parent="1" source="KzurcuNZsRSPmzHi2wHg-27" target="KzurcuNZsRSPmzHi2wHg-29">
          <mxGeometry width="50" height="50" relative="1" as="geometry">
            <mxPoint x="-212" y="770" as="sourcePoint" />
            <mxPoint x="-92" y="950" as="targetPoint" />
            <Array as="points">
              <mxPoint x="-30" y="710" />
              <mxPoint x="-30" y="750" />
            </Array>
          </mxGeometry>
        </mxCell>
        <mxCell id="KzurcuNZsRSPmzHi2wHg-31" value="&lt;font style=&quot;font-size: 12px;&quot;&gt;Пред.Сост. == Приготовление&amp;nbsp;(3)&lt;/font&gt;" style="edgeLabel;html=1;align=center;verticalAlign=middle;resizable=0;points=[];labelBackgroundColor=none;" connectable="0" vertex="1" parent="KzurcuNZsRSPmzHi2wHg-30">
          <mxGeometry x="-0.3116" relative="1" as="geometry">
            <mxPoint as="offset" />
          </mxGeometry>
        </mxCell>
        <mxCell id="KzurcuNZsRSPmzHi2wHg-32" value="" style="endArrow=classic;html=1;rounded=0;exitX=1;exitY=1;exitDx=0;exitDy=0;entryX=0;entryY=0.5;entryDx=0;entryDy=0;dashed=1;labelBackgroundColor=none;fontColor=default;" edge="1" parent="1" source="KzurcuNZsRSPmzHi2wHg-27" target="KzurcuNZsRSPmzHi2wHg-35">
          <mxGeometry width="50" height="50" relative="1" as="geometry">
            <mxPoint x="-230" y="798" as="sourcePoint" />
            <mxPoint x="-32" y="970" as="targetPoint" />
            <Array as="points">
              <mxPoint x="-248" y="830" />
              <mxPoint x="-250" y="840" />
              <mxPoint x="-30" y="840" />
            </Array>
          </mxGeometry>
        </mxCell>
        <mxCell id="KzurcuNZsRSPmzHi2wHg-33" style="edgeStyle=orthogonalEdgeStyle;rounded=0;orthogonalLoop=1;jettySize=auto;html=1;exitX=1;exitY=0.5;exitDx=0;exitDy=0;labelBackgroundColor=none;fontColor=default;" edge="1" parent="1" source="KzurcuNZsRSPmzHi2wHg-35">
          <mxGeometry relative="1" as="geometry">
            <mxPoint x="210" y="840" as="targetPoint" />
          </mxGeometry>
        </mxCell>
        <mxCell id="KzurcuNZsRSPmzHi2wHg-35" value="С1.7 Породить событие Д2" style="ellipse;whiteSpace=wrap;html=1;labelBackgroundColor=none;" vertex="1" parent="1">
          <mxGeometry x="20" y="800" width="120" height="80" as="geometry" />
        </mxCell>
        <mxCell id="KzurcuNZsRSPmzHi2wHg-36" value="&lt;font style=&quot;font-size: 12px;&quot;&gt;Пред.Сост.&amp;nbsp;== Ожидает запуска (2)&lt;/font&gt;" style="edgeLabel;html=1;align=center;verticalAlign=middle;resizable=0;points=[];labelBackgroundColor=none;" connectable="0" vertex="1" parent="1">
          <mxGeometry x="-130.0011655927865" y="839.9988405008773" as="geometry" />
        </mxCell>
        <mxCell id="eqEgvU586HSFr2kg52Lh-1" value="&lt;font style=&quot;font-size: 22px;&quot; face=&quot;Times New Roman&quot;&gt;&lt;b style=&quot;&quot;&gt;2. Ожидает запуска&lt;/b&gt;&lt;/font&gt;" style="text;html=1;align=center;verticalAlign=middle;whiteSpace=wrap;rounded=0;labelBackgroundColor=none;" vertex="1" parent="1">
          <mxGeometry x="-610" y="940" width="200" height="30" as="geometry" />
        </mxCell>
        <mxCell id="eqEgvU586HSFr2kg52Lh-2" value="" style="verticalLabelPosition=bottom;verticalAlign=top;html=1;shape=mxgraph.basic.frame;dx=10;whiteSpace=wrap;labelBackgroundColor=none;" vertex="1" parent="1">
          <mxGeometry x="-700" y="1130" width="100" height="60" as="geometry" />
        </mxCell>
        <mxCell id="eqEgvU586HSFr2kg52Lh-3" value="&lt;font style=&quot;font-size: 14px;&quot; face=&quot;Times New Roman&quot;&gt;Вафельница&lt;/font&gt;" style="text;html=1;align=center;verticalAlign=middle;whiteSpace=wrap;rounded=0;labelBackgroundColor=none;" vertex="1" parent="1">
          <mxGeometry x="-680" y="1145" width="60" height="30" as="geometry" />
        </mxCell>
        <mxCell id="eqEgvU586HSFr2kg52Lh-4" value="С2.1 Получить состояние" style="ellipse;whiteSpace=wrap;html=1;labelBackgroundColor=none;" vertex="1" parent="1">
          <mxGeometry x="-530" y="1120" width="120" height="80" as="geometry" />
        </mxCell>
        <mxCell id="eqEgvU586HSFr2kg52Lh-5" style="edgeStyle=orthogonalEdgeStyle;rounded=0;orthogonalLoop=1;jettySize=auto;html=1;exitX=0.5;exitY=1;exitDx=0;exitDy=0;entryX=0.5;entryY=0;entryDx=0;entryDy=0;labelBackgroundColor=none;fontColor=default;" edge="1" parent="1" source="eqEgvU586HSFr2kg52Lh-7" target="eqEgvU586HSFr2kg52Lh-23">
          <mxGeometry relative="1" as="geometry">
            <mxPoint x="-290" y="1310" as="targetPoint" />
          </mxGeometry>
        </mxCell>
        <mxCell id="eqEgvU586HSFr2kg52Lh-6" value="&lt;font face=&quot;Times New Roman&quot; style=&quot;font-size: 12px;&quot;&gt;Состояние С&lt;/font&gt;&lt;div&gt;&lt;font face=&quot;Times New Roman&quot; style=&quot;font-size: 12px;&quot;&gt;Пред. Сост.&lt;/font&gt;&lt;/div&gt;" style="edgeLabel;html=1;align=center;verticalAlign=middle;resizable=0;points=[];labelBackgroundColor=none;" connectable="0" vertex="1" parent="eqEgvU586HSFr2kg52Lh-5">
          <mxGeometry x="-0.3105" y="-2" relative="1" as="geometry">
            <mxPoint x="2" y="12" as="offset" />
          </mxGeometry>
        </mxCell>
        <mxCell id="eqEgvU586HSFr2kg52Lh-7" value="С2.2 Сохранить Предудщее состояние&lt;div&gt;Пред. Сост. = С&lt;/div&gt;" style="ellipse;whiteSpace=wrap;html=1;labelBackgroundColor=none;" vertex="1" parent="1">
          <mxGeometry x="-350" y="1120" width="120" height="80" as="geometry" />
        </mxCell>
        <mxCell id="eqEgvU586HSFr2kg52Lh-8" value="С2.0 Принять событие" style="ellipse;whiteSpace=wrap;html=1;labelBackgroundColor=none;" vertex="1" parent="1">
          <mxGeometry x="-350" y="990" width="120" height="80" as="geometry" />
        </mxCell>
        <mxCell id="eqEgvU586HSFr2kg52Lh-9" value="" style="endArrow=classic;html=1;rounded=0;entryX=0.5;entryY=0;entryDx=0;entryDy=0;labelBackgroundColor=none;fontColor=default;" edge="1" parent="1" target="eqEgvU586HSFr2kg52Lh-8">
          <mxGeometry width="50" height="50" relative="1" as="geometry">
            <mxPoint x="-290" y="920" as="sourcePoint" />
            <mxPoint x="-310" y="870" as="targetPoint" />
          </mxGeometry>
        </mxCell>
        <mxCell id="eqEgvU586HSFr2kg52Lh-10" value="&lt;font style=&quot;font-size: 14px;&quot; face=&quot;Times New Roman&quot;&gt;С1 || С4&lt;/font&gt;" style="edgeLabel;html=1;align=center;verticalAlign=middle;resizable=0;points=[];labelBackgroundColor=none;" connectable="0" vertex="1" parent="eqEgvU586HSFr2kg52Lh-9">
          <mxGeometry x="-0.5762" y="2" relative="1" as="geometry">
            <mxPoint x="-2" y="15" as="offset" />
          </mxGeometry>
        </mxCell>
        <mxCell id="eqEgvU586HSFr2kg52Lh-11" value="" style="endArrow=classic;html=1;rounded=0;exitX=1;exitY=0.5;exitDx=0;exitDy=0;entryX=1;entryY=0;entryDx=0;entryDy=0;labelBackgroundColor=none;fontColor=default;" edge="1" parent="1" source="eqEgvU586HSFr2kg52Lh-8" target="eqEgvU586HSFr2kg52Lh-27">
          <mxGeometry width="50" height="50" relative="1" as="geometry">
            <mxPoint x="-420" y="1160" as="sourcePoint" />
            <mxPoint x="-164" y="1550" as="targetPoint" />
            <Array as="points">
              <mxPoint x="-164" y="1030" />
              <mxPoint x="-164" y="1532" />
            </Array>
          </mxGeometry>
        </mxCell>
        <mxCell id="eqEgvU586HSFr2kg52Lh-12" value="&lt;font style=&quot;font-size: 14px;&quot; face=&quot;Times New Roman&quot;&gt;Данные события&lt;/font&gt;" style="edgeLabel;html=1;align=center;verticalAlign=middle;resizable=0;points=[];rotation=0;labelBackgroundColor=none;" connectable="0" vertex="1" parent="eqEgvU586HSFr2kg52Lh-11">
          <mxGeometry x="-0.5067" y="2" relative="1" as="geometry">
            <mxPoint x="12" y="165" as="offset" />
          </mxGeometry>
        </mxCell>
        <mxCell id="eqEgvU586HSFr2kg52Lh-13" value="" style="endArrow=classic;html=1;rounded=0;exitX=1;exitY=0.5;exitDx=0;exitDy=0;exitPerimeter=0;labelBackgroundColor=none;fontColor=default;" edge="1" parent="1" source="eqEgvU586HSFr2kg52Lh-2" target="eqEgvU586HSFr2kg52Lh-4">
          <mxGeometry width="50" height="50" relative="1" as="geometry">
            <mxPoint x="-550" y="1310" as="sourcePoint" />
            <mxPoint x="-500" y="1260" as="targetPoint" />
            <Array as="points" />
          </mxGeometry>
        </mxCell>
        <mxCell id="eqEgvU586HSFr2kg52Lh-14" value="&lt;font style=&quot;font-size: 12px;&quot; face=&quot;Times New Roman&quot;&gt;Состояние С&lt;/font&gt;" style="edgeLabel;html=1;align=center;verticalAlign=middle;resizable=0;points=[];labelBackgroundColor=none;" connectable="0" vertex="1" parent="eqEgvU586HSFr2kg52Lh-13">
          <mxGeometry x="-0.2524" relative="1" as="geometry">
            <mxPoint x="14" y="-40" as="offset" />
          </mxGeometry>
        </mxCell>
        <mxCell id="eqEgvU586HSFr2kg52Lh-15" value="" style="endArrow=classic;html=1;rounded=0;exitX=1;exitY=0.5;exitDx=0;exitDy=0;entryX=0;entryY=0.5;entryDx=0;entryDy=0;labelBackgroundColor=none;fontColor=default;" edge="1" parent="1" source="eqEgvU586HSFr2kg52Lh-4" target="eqEgvU586HSFr2kg52Lh-7">
          <mxGeometry width="50" height="50" relative="1" as="geometry">
            <mxPoint x="-400" y="1220" as="sourcePoint" />
            <mxPoint x="-330" y="1220" as="targetPoint" />
            <Array as="points" />
          </mxGeometry>
        </mxCell>
        <mxCell id="eqEgvU586HSFr2kg52Lh-16" value="&lt;font style=&quot;font-size: 12px;&quot; face=&quot;Times New Roman&quot;&gt;Состояние С&lt;/font&gt;" style="edgeLabel;html=1;align=center;verticalAlign=middle;resizable=0;points=[];labelBackgroundColor=none;" connectable="0" vertex="1" parent="eqEgvU586HSFr2kg52Lh-15">
          <mxGeometry x="-0.2524" relative="1" as="geometry">
            <mxPoint x="14" y="-40" as="offset" />
          </mxGeometry>
        </mxCell>
        <mxCell id="eqEgvU586HSFr2kg52Lh-17" value="" style="endArrow=classic;html=1;rounded=0;exitX=0;exitY=0.5;exitDx=0;exitDy=0;entryX=0.5;entryY=1;entryDx=0;entryDy=0;entryPerimeter=0;labelBackgroundColor=none;fontColor=default;" edge="1" parent="1" source="eqEgvU586HSFr2kg52Lh-26" target="eqEgvU586HSFr2kg52Lh-2">
          <mxGeometry width="50" height="50" relative="1" as="geometry">
            <mxPoint x="-480" y="1429.17" as="sourcePoint" />
            <mxPoint x="-420" y="1429.17" as="targetPoint" />
            <Array as="points">
              <mxPoint x="-650" y="1440" />
            </Array>
          </mxGeometry>
        </mxCell>
        <mxCell id="eqEgvU586HSFr2kg52Lh-18" value="&lt;font style=&quot;font-size: 12px;&quot; face=&quot;Times New Roman&quot;&gt;Состояние С&lt;/font&gt;" style="edgeLabel;html=1;align=center;verticalAlign=middle;resizable=0;points=[];labelBackgroundColor=none;" connectable="0" vertex="1" parent="eqEgvU586HSFr2kg52Lh-17">
          <mxGeometry x="-0.2524" relative="1" as="geometry">
            <mxPoint x="90" y="-20" as="offset" />
          </mxGeometry>
        </mxCell>
        <mxCell id="eqEgvU586HSFr2kg52Lh-19" style="edgeStyle=orthogonalEdgeStyle;rounded=0;orthogonalLoop=1;jettySize=auto;html=1;exitX=0.5;exitY=1;exitDx=0;exitDy=0;entryX=0.5;entryY=0;entryDx=0;entryDy=0;labelBackgroundColor=none;fontColor=default;" edge="1" parent="1" source="eqEgvU586HSFr2kg52Lh-23" target="eqEgvU586HSFr2kg52Lh-26">
          <mxGeometry relative="1" as="geometry" />
        </mxCell>
        <mxCell id="eqEgvU586HSFr2kg52Lh-20" value="&lt;span style=&quot;color: rgba(0, 0, 0, 0); font-family: monospace; font-size: 0px; text-align: start; background-color: rgb(27, 29, 30);&quot;&gt;%3CmxGraphModel%3E%3Croot%3E%3CmxCell%20id%3D%220%22%2F%3E%3CmxCell%20id%3D%221%22%20parent%3D%220%22%2F%3E%3CmxCell%20id%3D%222%22%20value%3D%22%26lt%3Bfont%20face%3D%26quot%3BTimes%20New%20Roman%26quot%3B%20style%3D%26quot%3Bfont-size%3A%2014px%3B%26quot%3B%26gt%3B%D0%A1%D0%BE%D1%81%D1%82%D0%BE%D1%8F%D0%BD%D0%B8%D0%B5%20%D0%A1%26lt%3B%2Ffont%26gt%3B%26lt%3Bdiv%26gt%3B%26lt%3Bfont%20face%3D%26quot%3BTimes%20New%20Roman%26quot%3B%20style%3D%26quot%3Bfont-size%3A%2014px%3B%26quot%3B%26gt%3B%D0%9F%D1%80%D0%B5%D0%B4.%20%D0%A1%D0%BE%D1%81%D1%82.%26lt%3B%2Ffont%26gt%3B%26lt%3B%2Fdiv%26gt%3B%22%20style%3D%22edgeLabel%3Bhtml%3D1%3Balign%3Dcenter%3BverticalAlign%3Dmiddle%3Bresizable%3D0%3Bpoints%3D%5B%5D%3B%22%20vertex%3D%221%22%20connectable%3D%220%22%20parent%3D%221%22%3E%3CmxGeometry%20x%3D%222110%22%20y%3D%22435.20000000000005%22%20as%3D%22geometry%22%2F%3E%3C%2FmxCell%3E%3C%2Froot%3E%3C%2FmxGraphModel%3&lt;/span&gt;" style="edgeLabel;html=1;align=center;verticalAlign=middle;resizable=0;points=[];labelBackgroundColor=none;" connectable="0" vertex="1" parent="eqEgvU586HSFr2kg52Lh-19">
          <mxGeometry x="-0.2631" y="-1" relative="1" as="geometry">
            <mxPoint as="offset" />
          </mxGeometry>
        </mxCell>
        <mxCell id="eqEgvU586HSFr2kg52Lh-21" value="&lt;span style=&quot;color: rgba(0, 0, 0, 0); font-family: monospace; font-size: 0px; text-align: start; background-color: rgb(27, 29, 30);&quot;&gt;%3CmxGraphModel%3E%3Croot%3E%3CmxCell%20id%3D%220%22%2F%3E%3CmxCell%20id%3D%221%22%20parent%3D%220%22%2F%3E%3CmxCell%20id%3D%222%22%20value%3D%22%26lt%3Bfont%20face%3D%26quot%3BTimes%20New%20Roman%26quot%3B%20style%3D%26quot%3Bfont-size%3A%2014px%3B%26quot%3B%26gt%3B%D0%A1%D0%BE%D1%81%D1%82%D0%BE%D1%8F%D0%BD%D0%B8%D0%B5%20%D0%A1%26lt%3B%2Ffont%26gt%3B%26lt%3Bdiv%26gt%3B%26lt%3Bfont%20face%3D%26quot%3BTimes%20New%20Roman%26quot%3B%20style%3D%26quot%3Bfont-size%3A%2014px%3B%26quot%3B%26gt%3B%D0%9F%D1%80%D0%B5%D0%B4.%20%D0%A1%D0%BE%D1%81%D1%82.%26lt%3B%2Ffont%26gt%3B%26lt%3B%2Fdiv%26gt%3B%22%20style%3D%22edgeLabel%3Bhtml%3D1%3Balign%3Dcenter%3BverticalAlign%3Dmiddle%3Bresizable%3D0%3Bpoints%3D%5B%5D%3B%22%20vertex%3D%221%22%20connectable%3D%220%22%20parent%3D%221%22%3E%3CmxGeometry%20x%3D%222110%22%20y%3D%22435.20000000000005%22%20as%3D%22geometry%22%2F%3E%3C%2FmxCell%3E%3C%2Froot%3E%3C%2FmxGraphModel%3E&lt;/span&gt;" style="edgeLabel;html=1;align=center;verticalAlign=middle;resizable=0;points=[];labelBackgroundColor=none;" connectable="0" vertex="1" parent="eqEgvU586HSFr2kg52Lh-19">
          <mxGeometry x="-0.2057" relative="1" as="geometry">
            <mxPoint as="offset" />
          </mxGeometry>
        </mxCell>
        <mxCell id="eqEgvU586HSFr2kg52Lh-22" value="&lt;font style=&quot;font-size: 12px;&quot; face=&quot;Times New Roman&quot;&gt;Состояние С&lt;/font&gt;&lt;div&gt;&lt;font style=&quot;font-size: 12px;&quot; face=&quot;Times New Roman&quot;&gt;Пред. Сост.&lt;/font&gt;&lt;/div&gt;" style="edgeLabel;html=1;align=center;verticalAlign=middle;resizable=0;points=[];labelBackgroundColor=none;" connectable="0" vertex="1" parent="eqEgvU586HSFr2kg52Lh-19">
          <mxGeometry x="-0.3204" relative="1" as="geometry">
            <mxPoint y="3" as="offset" />
          </mxGeometry>
        </mxCell>
        <mxCell id="eqEgvU586HSFr2kg52Lh-23" value="С2.3 Изменить состояние&lt;div&gt;C=Ожидает запуска(2)&lt;/div&gt;" style="ellipse;whiteSpace=wrap;html=1;labelBackgroundColor=none;" vertex="1" parent="1">
          <mxGeometry x="-350" y="1270" width="120" height="80" as="geometry" />
        </mxCell>
        <mxCell id="eqEgvU586HSFr2kg52Lh-24" style="edgeStyle=orthogonalEdgeStyle;rounded=0;orthogonalLoop=1;jettySize=auto;html=1;exitX=0.5;exitY=1;exitDx=0;exitDy=0;entryX=0.5;entryY=0;entryDx=0;entryDy=0;labelBackgroundColor=none;fontColor=default;" edge="1" parent="1" source="eqEgvU586HSFr2kg52Lh-26" target="eqEgvU586HSFr2kg52Lh-27">
          <mxGeometry relative="1" as="geometry" />
        </mxCell>
        <mxCell id="eqEgvU586HSFr2kg52Lh-25" value="&lt;span style=&quot;font-family: &amp;quot;Times New Roman&amp;quot;;&quot;&gt;&lt;font style=&quot;font-size: 12px;&quot;&gt;Пред. Сост.&lt;/font&gt;&lt;/span&gt;" style="edgeLabel;html=1;align=center;verticalAlign=middle;resizable=0;points=[];labelBackgroundColor=none;" connectable="0" vertex="1" parent="eqEgvU586HSFr2kg52Lh-24">
          <mxGeometry x="-0.0964" y="-1" relative="1" as="geometry">
            <mxPoint x="1" as="offset" />
          </mxGeometry>
        </mxCell>
        <mxCell id="eqEgvU586HSFr2kg52Lh-26" value="С2.4 Записать состояние" style="ellipse;whiteSpace=wrap;html=1;labelBackgroundColor=none;" vertex="1" parent="1">
          <mxGeometry x="-350" y="1400" width="120" height="80" as="geometry" />
        </mxCell>
        <mxCell id="eqEgvU586HSFr2kg52Lh-27" value="С2.5 Проверить предыдущее состояние" style="ellipse;whiteSpace=wrap;html=1;labelBackgroundColor=none;" vertex="1" parent="1">
          <mxGeometry x="-350" y="1520" width="120" height="80" as="geometry" />
        </mxCell>
        <mxCell id="eqEgvU586HSFr2kg52Lh-28" style="edgeStyle=orthogonalEdgeStyle;rounded=0;orthogonalLoop=1;jettySize=auto;html=1;exitX=1;exitY=0.5;exitDx=0;exitDy=0;labelBackgroundColor=none;fontColor=default;" edge="1" parent="1" source="eqEgvU586HSFr2kg52Lh-29">
          <mxGeometry relative="1" as="geometry">
            <mxPoint x="210" y="1600" as="targetPoint" />
          </mxGeometry>
        </mxCell>
        <mxCell id="eqEgvU586HSFr2kg52Lh-29" value="С2.6 Породить события Д1" style="ellipse;whiteSpace=wrap;html=1;labelBackgroundColor=none;" vertex="1" parent="1">
          <mxGeometry x="20" y="1560" width="120" height="80" as="geometry" />
        </mxCell>
        <mxCell id="eqEgvU586HSFr2kg52Lh-30" value="" style="endArrow=classic;html=1;rounded=0;exitX=1;exitY=0.5;exitDx=0;exitDy=0;entryX=0;entryY=0.5;entryDx=0;entryDy=0;dashed=1;labelBackgroundColor=none;fontColor=default;" edge="1" parent="1" source="eqEgvU586HSFr2kg52Lh-27" target="eqEgvU586HSFr2kg52Lh-29">
          <mxGeometry width="50" height="50" relative="1" as="geometry">
            <mxPoint x="-212" y="1620" as="sourcePoint" />
            <mxPoint x="-92" y="1800" as="targetPoint" />
            <Array as="points">
              <mxPoint x="-30" y="1560" />
              <mxPoint x="-30" y="1600" />
            </Array>
          </mxGeometry>
        </mxCell>
        <mxCell id="eqEgvU586HSFr2kg52Lh-31" value="&lt;font style=&quot;font-size: 12px;&quot;&gt;Пред.Сост. == Выключена(1)&lt;/font&gt;" style="edgeLabel;html=1;align=center;verticalAlign=middle;resizable=0;points=[];labelBackgroundColor=none;" connectable="0" vertex="1" parent="eqEgvU586HSFr2kg52Lh-30">
          <mxGeometry x="-0.3116" relative="1" as="geometry">
            <mxPoint as="offset" />
          </mxGeometry>
        </mxCell>
        <mxCell id="eqEgvU586HSFr2kg52Lh-32" value="" style="endArrow=classic;html=1;rounded=0;exitX=1;exitY=1;exitDx=0;exitDy=0;entryX=0;entryY=0.5;entryDx=0;entryDy=0;dashed=1;labelBackgroundColor=none;fontColor=default;" edge="1" parent="1" source="eqEgvU586HSFr2kg52Lh-27" target="eqEgvU586HSFr2kg52Lh-34">
          <mxGeometry width="50" height="50" relative="1" as="geometry">
            <mxPoint x="-230" y="1648" as="sourcePoint" />
            <mxPoint x="-32" y="1820" as="targetPoint" />
            <Array as="points">
              <mxPoint x="-248" y="1680" />
              <mxPoint x="-250" y="1690" />
              <mxPoint x="-30" y="1690" />
            </Array>
          </mxGeometry>
        </mxCell>
        <mxCell id="eqEgvU586HSFr2kg52Lh-33" style="edgeStyle=orthogonalEdgeStyle;rounded=0;orthogonalLoop=1;jettySize=auto;html=1;exitX=1;exitY=0.5;exitDx=0;exitDy=0;labelBackgroundColor=none;fontColor=default;" edge="1" parent="1" source="eqEgvU586HSFr2kg52Lh-34">
          <mxGeometry relative="1" as="geometry">
            <mxPoint x="210" y="1690" as="targetPoint" />
          </mxGeometry>
        </mxCell>
        <mxCell id="eqEgvU586HSFr2kg52Lh-34" value="С2.7 Породить событие Э2" style="ellipse;whiteSpace=wrap;html=1;labelBackgroundColor=none;" vertex="1" parent="1">
          <mxGeometry x="20" y="1650" width="120" height="80" as="geometry" />
        </mxCell>
        <mxCell id="eqEgvU586HSFr2kg52Lh-35" value="&lt;font style=&quot;font-size: 12px;&quot;&gt;Пред.Сост.&amp;nbsp;== Приготовление(3)&lt;/font&gt;" style="edgeLabel;html=1;align=center;verticalAlign=middle;resizable=0;points=[];labelBackgroundColor=none;" connectable="0" vertex="1" parent="1">
          <mxGeometry x="-130.0011655927865" y="1689.9988405008773" as="geometry" />
        </mxCell>
        <mxCell id="3vU_zGlU28dJKbvTVU9k-1" value="&lt;font style=&quot;font-size: 22px;&quot; face=&quot;Times New Roman&quot;&gt;&lt;b style=&quot;&quot;&gt;3. Приготовление&lt;/b&gt;&lt;/font&gt;" style="text;html=1;align=center;verticalAlign=middle;whiteSpace=wrap;rounded=0;labelBackgroundColor=none;" vertex="1" parent="1">
          <mxGeometry x="-620" y="1810" width="200" height="30" as="geometry" />
        </mxCell>
        <mxCell id="3vU_zGlU28dJKbvTVU9k-2" value="" style="verticalLabelPosition=bottom;verticalAlign=top;html=1;shape=mxgraph.basic.frame;dx=10;whiteSpace=wrap;labelBackgroundColor=none;" vertex="1" parent="1">
          <mxGeometry x="-710" y="2000" width="100" height="60" as="geometry" />
        </mxCell>
        <mxCell id="3vU_zGlU28dJKbvTVU9k-3" value="&lt;font style=&quot;font-size: 14px;&quot; face=&quot;Times New Roman&quot;&gt;Вафельница&lt;/font&gt;" style="text;html=1;align=center;verticalAlign=middle;whiteSpace=wrap;rounded=0;labelBackgroundColor=none;" vertex="1" parent="1">
          <mxGeometry x="-690" y="2015" width="60" height="30" as="geometry" />
        </mxCell>
        <mxCell id="3vU_zGlU28dJKbvTVU9k-4" value="С3.1 Получить состояние" style="ellipse;whiteSpace=wrap;html=1;labelBackgroundColor=none;" vertex="1" parent="1">
          <mxGeometry x="-540" y="1990" width="120" height="80" as="geometry" />
        </mxCell>
        <mxCell id="3vU_zGlU28dJKbvTVU9k-5" style="edgeStyle=orthogonalEdgeStyle;rounded=0;orthogonalLoop=1;jettySize=auto;html=1;exitX=0.5;exitY=1;exitDx=0;exitDy=0;entryX=0.5;entryY=0;entryDx=0;entryDy=0;dashed=1;labelBackgroundColor=none;fontColor=default;" edge="1" parent="1" source="3vU_zGlU28dJKbvTVU9k-7" target="3vU_zGlU28dJKbvTVU9k-23">
          <mxGeometry relative="1" as="geometry">
            <mxPoint x="-300" y="2180" as="targetPoint" />
          </mxGeometry>
        </mxCell>
        <mxCell id="3vU_zGlU28dJKbvTVU9k-6" value="&lt;font face=&quot;Times New Roman&quot; style=&quot;font-size: 12px;&quot;&gt;Состояние С = Ожидает запуска (2)&lt;/font&gt;" style="edgeLabel;html=1;align=center;verticalAlign=middle;resizable=0;points=[];labelBackgroundColor=none;" connectable="0" vertex="1" parent="3vU_zGlU28dJKbvTVU9k-5">
          <mxGeometry x="-0.3105" y="-2" relative="1" as="geometry">
            <mxPoint x="2" y="12" as="offset" />
          </mxGeometry>
        </mxCell>
        <mxCell id="3vU_zGlU28dJKbvTVU9k-7" value="С3.2 Проверить состояние" style="ellipse;whiteSpace=wrap;html=1;labelBackgroundColor=none;" vertex="1" parent="1">
          <mxGeometry x="-360" y="1990" width="120" height="80" as="geometry" />
        </mxCell>
        <mxCell id="gKdUzIWOqTzNSBoO8es5-1" style="edgeStyle=orthogonalEdgeStyle;rounded=0;orthogonalLoop=1;jettySize=auto;html=1;labelBackgroundColor=none;fontColor=default;" edge="1" parent="1" source="3vU_zGlU28dJKbvTVU9k-8" target="3vU_zGlU28dJKbvTVU9k-7">
          <mxGeometry relative="1" as="geometry" />
        </mxCell>
        <mxCell id="gKdUzIWOqTzNSBoO8es5-2" value="Данные события" style="edgeLabel;html=1;align=center;verticalAlign=middle;resizable=0;points=[];labelBackgroundColor=none;" connectable="0" vertex="1" parent="gKdUzIWOqTzNSBoO8es5-1">
          <mxGeometry x="-0.24" y="1" relative="1" as="geometry">
            <mxPoint as="offset" />
          </mxGeometry>
        </mxCell>
        <mxCell id="3vU_zGlU28dJKbvTVU9k-8" value="С3.0 Принять событие" style="ellipse;whiteSpace=wrap;html=1;labelBackgroundColor=none;" vertex="1" parent="1">
          <mxGeometry x="-360" y="1860" width="120" height="80" as="geometry" />
        </mxCell>
        <mxCell id="3vU_zGlU28dJKbvTVU9k-9" value="" style="endArrow=classic;html=1;rounded=0;entryX=0.5;entryY=0;entryDx=0;entryDy=0;labelBackgroundColor=none;fontColor=default;" edge="1" parent="1" target="3vU_zGlU28dJKbvTVU9k-8">
          <mxGeometry width="50" height="50" relative="1" as="geometry">
            <mxPoint x="-300" y="1790" as="sourcePoint" />
            <mxPoint x="-320" y="1740" as="targetPoint" />
          </mxGeometry>
        </mxCell>
        <mxCell id="3vU_zGlU28dJKbvTVU9k-10" value="&lt;font style=&quot;font-size: 14px;&quot; face=&quot;Times New Roman&quot;&gt;С3&lt;/font&gt;" style="edgeLabel;html=1;align=center;verticalAlign=middle;resizable=0;points=[];labelBackgroundColor=none;" connectable="0" vertex="1" parent="3vU_zGlU28dJKbvTVU9k-9">
          <mxGeometry x="-0.5762" y="2" relative="1" as="geometry">
            <mxPoint x="-2" y="15" as="offset" />
          </mxGeometry>
        </mxCell>
        <mxCell id="3vU_zGlU28dJKbvTVU9k-13" value="" style="endArrow=classic;html=1;rounded=0;exitX=1;exitY=0.5;exitDx=0;exitDy=0;exitPerimeter=0;labelBackgroundColor=none;fontColor=default;" edge="1" parent="1" source="3vU_zGlU28dJKbvTVU9k-2" target="3vU_zGlU28dJKbvTVU9k-4">
          <mxGeometry width="50" height="50" relative="1" as="geometry">
            <mxPoint x="-560" y="2180" as="sourcePoint" />
            <mxPoint x="-510" y="2130" as="targetPoint" />
            <Array as="points" />
          </mxGeometry>
        </mxCell>
        <mxCell id="3vU_zGlU28dJKbvTVU9k-14" value="&lt;font style=&quot;font-size: 12px;&quot; face=&quot;Times New Roman&quot;&gt;Состояние С&lt;/font&gt;" style="edgeLabel;html=1;align=center;verticalAlign=middle;resizable=0;points=[];labelBackgroundColor=none;" connectable="0" vertex="1" parent="3vU_zGlU28dJKbvTVU9k-13">
          <mxGeometry x="-0.2524" relative="1" as="geometry">
            <mxPoint x="14" y="-40" as="offset" />
          </mxGeometry>
        </mxCell>
        <mxCell id="3vU_zGlU28dJKbvTVU9k-15" value="" style="endArrow=classic;html=1;rounded=0;exitX=1;exitY=0.5;exitDx=0;exitDy=0;entryX=0;entryY=0.5;entryDx=0;entryDy=0;labelBackgroundColor=none;fontColor=default;" edge="1" parent="1" source="3vU_zGlU28dJKbvTVU9k-4" target="3vU_zGlU28dJKbvTVU9k-7">
          <mxGeometry width="50" height="50" relative="1" as="geometry">
            <mxPoint x="-410" y="2090" as="sourcePoint" />
            <mxPoint x="-340" y="2090" as="targetPoint" />
            <Array as="points" />
          </mxGeometry>
        </mxCell>
        <mxCell id="3vU_zGlU28dJKbvTVU9k-16" value="&lt;font style=&quot;font-size: 12px;&quot; face=&quot;Times New Roman&quot;&gt;Состояние С&lt;/font&gt;" style="edgeLabel;html=1;align=center;verticalAlign=middle;resizable=0;points=[];labelBackgroundColor=none;" connectable="0" vertex="1" parent="3vU_zGlU28dJKbvTVU9k-15">
          <mxGeometry x="-0.2524" relative="1" as="geometry">
            <mxPoint x="14" y="-40" as="offset" />
          </mxGeometry>
        </mxCell>
        <mxCell id="3vU_zGlU28dJKbvTVU9k-17" value="" style="endArrow=classic;html=1;rounded=0;exitX=0;exitY=0.5;exitDx=0;exitDy=0;entryX=0.5;entryY=1;entryDx=0;entryDy=0;entryPerimeter=0;labelBackgroundColor=none;fontColor=default;" edge="1" parent="1" source="3vU_zGlU28dJKbvTVU9k-26" target="3vU_zGlU28dJKbvTVU9k-2">
          <mxGeometry width="50" height="50" relative="1" as="geometry">
            <mxPoint x="-490" y="2299.17" as="sourcePoint" />
            <mxPoint x="-430" y="2299.17" as="targetPoint" />
            <Array as="points">
              <mxPoint x="-660" y="2310" />
            </Array>
          </mxGeometry>
        </mxCell>
        <mxCell id="3vU_zGlU28dJKbvTVU9k-18" value="&lt;font style=&quot;font-size: 12px;&quot; face=&quot;Times New Roman&quot;&gt;Состояние С&lt;/font&gt;" style="edgeLabel;html=1;align=center;verticalAlign=middle;resizable=0;points=[];labelBackgroundColor=none;" connectable="0" vertex="1" parent="3vU_zGlU28dJKbvTVU9k-17">
          <mxGeometry x="-0.2524" relative="1" as="geometry">
            <mxPoint x="90" y="-20" as="offset" />
          </mxGeometry>
        </mxCell>
        <mxCell id="3vU_zGlU28dJKbvTVU9k-19" style="edgeStyle=orthogonalEdgeStyle;rounded=0;orthogonalLoop=1;jettySize=auto;html=1;exitX=0.5;exitY=1;exitDx=0;exitDy=0;entryX=0.5;entryY=0;entryDx=0;entryDy=0;labelBackgroundColor=none;fontColor=default;" edge="1" parent="1" source="3vU_zGlU28dJKbvTVU9k-23" target="3vU_zGlU28dJKbvTVU9k-26">
          <mxGeometry relative="1" as="geometry" />
        </mxCell>
        <mxCell id="3vU_zGlU28dJKbvTVU9k-20" value="&lt;span style=&quot;color: rgba(0, 0, 0, 0); font-family: monospace; font-size: 0px; text-align: start; background-color: rgb(27, 29, 30);&quot;&gt;%3CmxGraphModel%3E%3Croot%3E%3CmxCell%20id%3D%220%22%2F%3E%3CmxCell%20id%3D%221%22%20parent%3D%220%22%2F%3E%3CmxCell%20id%3D%222%22%20value%3D%22%26lt%3Bfont%20face%3D%26quot%3BTimes%20New%20Roman%26quot%3B%20style%3D%26quot%3Bfont-size%3A%2014px%3B%26quot%3B%26gt%3B%D0%A1%D0%BE%D1%81%D1%82%D0%BE%D1%8F%D0%BD%D0%B8%D0%B5%20%D0%A1%26lt%3B%2Ffont%26gt%3B%26lt%3Bdiv%26gt%3B%26lt%3Bfont%20face%3D%26quot%3BTimes%20New%20Roman%26quot%3B%20style%3D%26quot%3Bfont-size%3A%2014px%3B%26quot%3B%26gt%3B%D0%9F%D1%80%D0%B5%D0%B4.%20%D0%A1%D0%BE%D1%81%D1%82.%26lt%3B%2Ffont%26gt%3B%26lt%3B%2Fdiv%26gt%3B%22%20style%3D%22edgeLabel%3Bhtml%3D1%3Balign%3Dcenter%3BverticalAlign%3Dmiddle%3Bresizable%3D0%3Bpoints%3D%5B%5D%3B%22%20vertex%3D%221%22%20connectable%3D%220%22%20parent%3D%221%22%3E%3CmxGeometry%20x%3D%222110%22%20y%3D%22435.20000000000005%22%20as%3D%22geometry%22%2F%3E%3C%2FmxCell%3E%3C%2Froot%3E%3C%2FmxGraphModel%3&lt;/span&gt;" style="edgeLabel;html=1;align=center;verticalAlign=middle;resizable=0;points=[];labelBackgroundColor=none;" connectable="0" vertex="1" parent="3vU_zGlU28dJKbvTVU9k-19">
          <mxGeometry x="-0.2631" y="-1" relative="1" as="geometry">
            <mxPoint as="offset" />
          </mxGeometry>
        </mxCell>
        <mxCell id="3vU_zGlU28dJKbvTVU9k-21" value="&lt;span style=&quot;color: rgba(0, 0, 0, 0); font-family: monospace; font-size: 0px; text-align: start; background-color: rgb(27, 29, 30);&quot;&gt;%3CmxGraphModel%3E%3Croot%3E%3CmxCell%20id%3D%220%22%2F%3E%3CmxCell%20id%3D%221%22%20parent%3D%220%22%2F%3E%3CmxCell%20id%3D%222%22%20value%3D%22%26lt%3Bfont%20face%3D%26quot%3BTimes%20New%20Roman%26quot%3B%20style%3D%26quot%3Bfont-size%3A%2014px%3B%26quot%3B%26gt%3B%D0%A1%D0%BE%D1%81%D1%82%D0%BE%D1%8F%D0%BD%D0%B8%D0%B5%20%D0%A1%26lt%3B%2Ffont%26gt%3B%26lt%3Bdiv%26gt%3B%26lt%3Bfont%20face%3D%26quot%3BTimes%20New%20Roman%26quot%3B%20style%3D%26quot%3Bfont-size%3A%2014px%3B%26quot%3B%26gt%3B%D0%9F%D1%80%D0%B5%D0%B4.%20%D0%A1%D0%BE%D1%81%D1%82.%26lt%3B%2Ffont%26gt%3B%26lt%3B%2Fdiv%26gt%3B%22%20style%3D%22edgeLabel%3Bhtml%3D1%3Balign%3Dcenter%3BverticalAlign%3Dmiddle%3Bresizable%3D0%3Bpoints%3D%5B%5D%3B%22%20vertex%3D%221%22%20connectable%3D%220%22%20parent%3D%221%22%3E%3CmxGeometry%20x%3D%222110%22%20y%3D%22435.20000000000005%22%20as%3D%22geometry%22%2F%3E%3C%2FmxCell%3E%3C%2Froot%3E%3C%2FmxGraphModel%3E&lt;/span&gt;" style="edgeLabel;html=1;align=center;verticalAlign=middle;resizable=0;points=[];labelBackgroundColor=none;" connectable="0" vertex="1" parent="3vU_zGlU28dJKbvTVU9k-19">
          <mxGeometry x="-0.2057" relative="1" as="geometry">
            <mxPoint as="offset" />
          </mxGeometry>
        </mxCell>
        <mxCell id="3vU_zGlU28dJKbvTVU9k-22" value="&lt;font style=&quot;font-size: 12px;&quot; face=&quot;Times New Roman&quot;&gt;Состояние С&lt;/font&gt;" style="edgeLabel;html=1;align=center;verticalAlign=middle;resizable=0;points=[];labelBackgroundColor=none;" connectable="0" vertex="1" parent="3vU_zGlU28dJKbvTVU9k-19">
          <mxGeometry x="-0.3204" relative="1" as="geometry">
            <mxPoint y="3" as="offset" />
          </mxGeometry>
        </mxCell>
        <mxCell id="3vU_zGlU28dJKbvTVU9k-23" value="С3.3 Изменить состояние&lt;div&gt;C =Приготовление(3)&lt;/div&gt;" style="ellipse;whiteSpace=wrap;html=1;labelBackgroundColor=none;" vertex="1" parent="1">
          <mxGeometry x="-370" y="2140" width="140" height="80" as="geometry" />
        </mxCell>
        <mxCell id="1Nl67nKdX6uNpVeU-fWO-1" style="edgeStyle=orthogonalEdgeStyle;rounded=0;orthogonalLoop=1;jettySize=auto;html=1;dashed=1;labelBackgroundColor=none;fontColor=default;" edge="1" parent="1" source="3vU_zGlU28dJKbvTVU9k-26" target="3vU_zGlU28dJKbvTVU9k-29">
          <mxGeometry relative="1" as="geometry" />
        </mxCell>
        <mxCell id="3vU_zGlU28dJKbvTVU9k-26" value="С3.4 Записать состояние" style="ellipse;whiteSpace=wrap;html=1;labelBackgroundColor=none;" vertex="1" parent="1">
          <mxGeometry x="-360" y="2270" width="120" height="80" as="geometry" />
        </mxCell>
        <mxCell id="3vU_zGlU28dJKbvTVU9k-29" value="С3.5 Породить события Э1" style="ellipse;whiteSpace=wrap;html=1;labelBackgroundColor=none;" vertex="1" parent="1">
          <mxGeometry x="-130" y="2270" width="120" height="80" as="geometry" />
        </mxCell>
      </root>
    </mxGraphModel>
  </diagram>
</mxfile>
